<svg id="Layer_1" data-name="Layer 1" xmlns="http://www.w3.org/2000/svg" viewBox="0 0 250 250">

    <defs>
        <style>
            .cls-1 {
                fill: #00d5ff;
            }

            .cls-2 {
                fill: #f7f7f7;
            }
        </style>
    </defs>

    <path fill="#f7f7f7"
        d="M200,125.06a23.52,23.52,0,0,0-23.52-23.52l-.41,0a23.52,23.52,0,0,0-22.84-18,23.27,23.27,0,0,0-6.17.85A40.78,40.78,0,0,0,70.62,99.18a24.87,24.87,0,0,0-2.44,48.47,18.13,18.13,0,0,0,5.74.94H177a18.38,18.38,0,0,0,3.81-.41A23.52,23.52,0,0,0,200,125.06Z" />
    <path fill="#00d5ff"
        d="M86.31,167l0-9.18a2.67,2.67,0,0,0-2.67-2.67,2.53,2.53,0,0,0-1.25.33h0l-.06,0-.29.19-7.31,4.77a8.34,8.34,0,0,0-1.12.74l-.14.09h0A7.89,7.89,0,1,0,86.3,168h0v-.12c0-.16,0-.32,0-.48S86.32,167.13,86.31,167Z" />
    <path fill="#00d5ff"
        d="M110.78,167l0-9.18a2.68,2.68,0,0,0-2.68-2.67,2.53,2.53,0,0,0-1.25.33h0l-.06,0-.29.19-7.31,4.77a8.34,8.34,0,0,0-1.12.74l-.14.09h0A7.89,7.89,0,1,0,110.78,168h0v-.12c0-.16,0-.32,0-.48S110.79,167.13,110.78,167Z" />
    <path fill="#00d5ff"
        d="M155.25,167l0-9.18a2.68,2.68,0,0,0-2.68-2.67,2.53,2.53,0,0,0-1.25.33h0l-.06,0-.29.19-7.31,4.77a8.34,8.34,0,0,0-1.12.74l-.13.09h0A7.89,7.89,0,1,0,155.25,168h0v-.12c0-.16,0-.32,0-.48S155.26,167.13,155.25,167Z" />
    <path fill="#00d5ff"
        d="M179.15,167l0-9.18a2.67,2.67,0,0,0-2.67-2.67,2.51,2.51,0,0,0-1.25.33h0l-.06,0a2.9,2.9,0,0,0-.29.19l-7.31,4.77a7.75,7.75,0,0,0-1.12.74l-.14.09h0A7.89,7.89,0,1,0,179.14,168h0v-.12c0-.16,0-.32,0-.48S179.16,167.13,179.15,167Z" />
    <path fill="#00d5ff"
        d="M137.29,110.68l-22,32.34a2.33,2.33,0,0,0,.79,3.4l14,0c1.1,0,0,1.32-.28,2.38l-14.84,35.3a2.33,2.33,0,0,0,4.22,1.89L146,140.2a2.33,2.33,0,0,0-1.5-3.53l-13.37.09c-1.81,0-.87-1.26-.87-1.26l11.18-22.76A2.34,2.34,0,0,0,137.29,110.68Z" />
</svg>