<svg id="Layer_1" data-name="Layer 1" xmlns="http://www.w3.org/2000/svg" viewBox="0 0 250 250">
    <path fill="#f7f7f7"
        d="M194.79,144.82a23.52,23.52,0,0,0-23.53-23.52l-.4,0a23.4,23.4,0,0,0-29-17.14,40.78,40.78,0,0,0-76.46,14.76,24.87,24.87,0,0,0-2.45,48.47,18.24,18.24,0,0,0,5.75.94h103a18.47,18.47,0,0,0,3.82-.41A23.52,23.52,0,0,0,194.79,144.82Z" />
    <rect fill="#ffdd15" x="187.19" y="108.86" width="18.25" height="10.7" rx="5.35"
        transform="translate(42.47 -52.87) rotate(17.17)" />
    <rect fill="#ffdd15" x="186.68" y="79.41" width="18.25" height="10.7" rx="5.35"
        transform="translate(-17.03 69.77) rotate(-19.38)" />
    <rect fill="#ffdd15" x="170.15" y="55.83" width="18.25" height="10.7" rx="5.35"
        transform="translate(26.63 173.34) rotate(-55.15)" />
    <rect fill="#ffdd15" x="114.08" y="55.96" width="18.25" height="10.7" rx="5.35"
        transform="translate(143.3 197.46) rotate(-124.85)" />
    <rect fill="#ffdd15" x="142.19" y="46.94" width="18.25" height="10.7" rx="5.35"
        transform="translate(99.03 203.61) rotate(-90)" />
    <path fill="#ffdd15"
        d="M144.46,100.2a24,24,0,0,1,29.8,17.6l.42,0h.17A29.63,29.63,0,1,0,127,82.89,42.12,42.12,0,0,1,144.46,100.2Z" />
    <path fill="#00d5ff"
        d="M81.07,186.75l0-9.18a2.68,2.68,0,0,0-2.67-2.67,2.57,2.57,0,0,0-1.26.33h0l-.06,0a2.9,2.9,0,0,0-.29.19l-7.31,4.77a7,7,0,0,0-1.12.74l-.14.09h0a7.89,7.89,0,1,0,12.81,6.73h0v-.12c0-.16,0-.32,0-.48S81.08,186.89,81.07,186.75Z" />
    <path fill="#00d5ff"
        d="M105.54,186.75l0-9.18a2.67,2.67,0,0,0-2.67-2.67,2.57,2.57,0,0,0-1.26.33h0l-.06,0a2.9,2.9,0,0,0-.29.19L94,180.22a7,7,0,0,0-1.12.74l-.14.09h0a7.89,7.89,0,1,0,12.81,6.73h0v-.12c0-.16,0-.32,0-.48S105.55,186.89,105.54,186.75Z" />
    <path fill="#00d5ff"
        d="M150,186.75l0-9.18a2.67,2.67,0,0,0-2.67-2.67,2.57,2.57,0,0,0-1.26.33h0l-.06,0a2.9,2.9,0,0,0-.29.19l-7.31,4.77a7,7,0,0,0-1.12.74l-.14.09h0A7.89,7.89,0,1,0,150,187.78h0v-.12c0-.16,0-.32,0-.48S150,186.89,150,186.75Z" />
    <path fill="#00d5ff"
        d="M173.91,186.75l0-9.18a2.68,2.68,0,0,0-2.67-2.67,2.57,2.57,0,0,0-1.26.33h0l-.06,0a2.9,2.9,0,0,0-.29.19l-7.31,4.77a7.57,7.57,0,0,0-1.13.74l-.13.09h0a7.89,7.89,0,1,0,12.81,6.73h0v-.12c0-.16,0-.32,0-.48S173.92,186.89,173.91,186.75Z" />
    <path fill="#00d5ff"
        d="M132.05,130.44,110,162.78a2.33,2.33,0,0,0,.79,3.4l14,0c1.1,0,0,1.32-.28,2.38l-14.85,35.3a2.33,2.33,0,0,0,4.22,1.89L140.74,160a2.33,2.33,0,0,0-1.5-3.53l-13.37.09c-1.82,0-.88-1.26-.88-1.26l11.19-22.76A2.34,2.34,0,0,0,132.05,130.44Z" />
</svg>