<svg id="Layer_1" data-name="Layer 1" xmlns="http://www.w3.org/2000/svg" viewBox="0 0 250 250">
    <defs>
        <style>
            .cls-1 {
                fill: #00d5ff;
            }

            .cls-2 {
                fill: #f7f7f7;
            }

            .cls-3 {
                fill: #efefef;
            }
        </style>
    </defs>
    <path class="cls-1"
        d="M218.64,84.24a26.35,26.35,0,0,1-12.23,3.54C188.8,89.05,174.07,72,173.09,56.55a35.1,35.1,0,0,1,1.49-12.65c.11-.35-.23-1.31-1.36-.77C158.33,50.23,148,64.5,150.68,82a34.47,34.47,0,0,0,1,4.7,42.8,42.8,0,0,1,10.88,13.07,24.41,24.41,0,0,1,28,11.93c14.35-2,24.27-12.87,29.46-26.32C220.43,84.36,219,84,218.64,84.24Z" />
    <path class="cls-2"
        d="M212.76,145.33a23.52,23.52,0,0,0-23.52-23.53l-.41,0a23.44,23.44,0,0,0-29-17.14,40.78,40.78,0,0,0-76.46,14.76,24.87,24.87,0,0,0-2.45,48.47,18.17,18.17,0,0,0,5.74.94h103a18.38,18.38,0,0,0,3.81-.41A23.5,23.5,0,0,0,212.76,145.33Z" />
    <path class="cls-1"
        d="M92.67,186.94l0-9.18A2.67,2.67,0,0,0,90,175.09a2.61,2.61,0,0,0-1.25.33h0l-.06,0a2.9,2.9,0,0,0-.29.19l-7.31,4.78a7.69,7.69,0,0,0-1.12.73l-.14.09h0A7.89,7.89,0,1,0,92.66,188h0v-.12c0-.16,0-.32,0-.48S92.68,187.09,92.67,186.94Z" />
    <path class="cls-1"
        d="M117.14,186.94l0-9.18a2.67,2.67,0,0,0-2.67-2.67,2.61,2.61,0,0,0-1.25.33h0l-.06,0a2.9,2.9,0,0,0-.29.19l-7.31,4.78a8.28,8.28,0,0,0-1.12.73l-.14.09h0A7.89,7.89,0,1,0,117.13,188h0v-.12c0-.16,0-.32,0-.48S117.15,187.09,117.14,186.94Z" />
    <path class="cls-1"
        d="M161.61,186.94l0-9.18a2.64,2.64,0,0,0-3.92-2.34h0l-.06,0-.29.19L150,180.42a8.28,8.28,0,0,0-1.12.73l-.14.09h0A7.89,7.89,0,1,0,161.6,188h0v-.12c0-.16,0-.32,0-.48S161.62,187.09,161.61,186.94Z" />
    <path class="cls-1"
        d="M185.51,186.94l0-9.18a2.65,2.65,0,0,0-3.93-2.34h0l-.06,0a2.9,2.9,0,0,0-.29.19l-7.31,4.78a7.69,7.69,0,0,0-1.12.73l-.14.09h0A7.89,7.89,0,1,0,185.5,188h0v-.12c0-.16,0-.32,0-.48S185.52,187.09,185.51,186.94Z" />
    <path class="cls-3"
        d="M57.28,143.69c0-13.33,9.38-24.39,21.69-26.57A44.55,44.55,0,0,1,95.77,86.7,40.28,40.28,0,0,0,88.11,86c-20,0-36.42,14.84-38.56,33.93a23.19,23.19,0,0,0-2.33,45.35,17.59,17.59,0,0,0,5.46.88H68.9A27.17,27.17,0,0,1,57.28,143.69Z" />
    <path class="cls-1"
        d="M143.65,130.63,121.6,163a2.33,2.33,0,0,0,.79,3.4l14,0c1.1,0,0,1.33-.28,2.38L121.27,204a2.34,2.34,0,0,0,4.22,1.9l26.85-45.78a2.34,2.34,0,0,0-1.5-3.53l-13.37.09c-1.81,0-.87-1.26-.87-1.26l11.18-22.76A2.34,2.34,0,0,0,143.65,130.63Z" />
</svg>