<svg id="Layer_1" data-name="Layer 1" xmlns="http://www.w3.org/2000/svg" viewBox="0 0 250 250"><defs><style>.cls-1{fill:#00d5ff;}.cls-2{fill:#f7f7f7;}.cls-3{fill:#efefef;}</style></defs><path class="cls-1" d="M218.64,88.18a26.24,26.24,0,0,1-12.23,3.54C188.8,93,174.07,75.91,173.09,60.5a35.12,35.12,0,0,1,1.49-12.66c.11-.35-.23-1.3-1.36-.76C158.33,54.17,148,68.44,150.68,85.93a35.15,35.15,0,0,0,1,4.7,42.88,42.88,0,0,1,10.88,13.06,24.84,24.84,0,0,1,6.44-.88,24.5,24.5,0,0,1,21.53,12.82c14.35-2,24.27-12.87,29.46-26.32C220.43,88.3,219,88,218.64,88.18Z"/><path class="cls-2" d="M212.76,149.27a23.52,23.52,0,0,0-23.52-23.52l-.41,0a23.51,23.51,0,0,0-22.84-18,23.27,23.27,0,0,0-6.17.85,40.78,40.78,0,0,0-76.46,14.76,24.87,24.87,0,0,0-2.45,48.47,18.17,18.17,0,0,0,5.74.93h103a18.38,18.38,0,0,0,3.81-.4A23.52,23.52,0,0,0,212.76,149.27Z"/><path class="cls-3" d="M57.28,147.64c0-13.34,9.38-24.39,21.69-26.58a44.5,44.5,0,0,1,16.8-30.41,39.48,39.48,0,0,0-7.66-.76c-20,0-36.42,14.85-38.56,33.93a23.19,23.19,0,0,0-2.33,45.36,17.59,17.59,0,0,0,5.46.87H68.9A27.15,27.15,0,0,1,57.28,147.64Z"/><path class="cls-1" d="M143.65,134.58,121.6,166.91a2.34,2.34,0,0,0,.79,3.41l14,0c1.1,0,0,1.33-.28,2.38L121.27,208a2.34,2.34,0,0,0,4.22,1.9l26.85-45.77a2.33,2.33,0,0,0-1.5-3.53l-13.37.08c-1.81,0-.87-1.26-.87-1.26l11.18-22.76A2.33,2.33,0,0,0,143.65,134.58Z"/></svg>