<svg id="Layer_1" data-name="Layer 1" xmlns="http://www.w3.org/2000/svg" viewBox="0 0 250 250"><defs><style>.cls-1{fill:#f7f7f7;}.cls-2{fill:#fc0;}.cls-3{fill:#efefef;}.cls-4{fill:#00d5ff;}</style></defs><path class="cls-1" d="M211.2,149.27a23.52,23.52,0,0,0-23.52-23.52l-.41,0a23.51,23.51,0,0,0-22.84-18,23.27,23.27,0,0,0-6.17.85,40.78,40.78,0,0,0-76.47,14.76,24.87,24.87,0,0,0-2.44,48.47,18.12,18.12,0,0,0,5.74.93h103a18.45,18.45,0,0,0,3.81-.4A23.53,23.53,0,0,0,211.2,149.27Z"/><rect class="cls-2" x="203.59" y="112.99" width="18.25" height="10.7" rx="5.35" transform="translate(44.42 -57.53) rotate(17.17)"/><rect class="cls-2" x="203.07" y="83.54" width="18.25" height="10.7" rx="5.35" transform="translate(-17.47 75.44) rotate(-19.38)"/><rect class="cls-2" x="186.55" y="59.96" width="18.25" height="10.7" rx="5.35" transform="translate(30.27 188.57) rotate(-55.15)"/><rect class="cls-2" x="130.48" y="60.1" width="18.25" height="10.7" rx="5.35" transform="translate(165.67 217.41) rotate(-124.85)"/><rect class="cls-2" x="158.59" y="51.08" width="18.25" height="10.7" rx="5.35" transform="translate(111.29 224.14) rotate(-90)"/><path class="cls-2" d="M160.86,104.33a24,24,0,0,1,29.8,17.61l.42,0h.16A29.63,29.63,0,1,0,143.38,87,42.18,42.18,0,0,1,160.86,104.33Z"/><path class="cls-3" d="M55.71,147.64c0-13.34,9.38-24.39,21.7-26.58A44.46,44.46,0,0,1,94.2,90.65a39.3,39.3,0,0,0-7.65-.76c-20,0-36.43,14.85-38.57,33.93a23.19,23.19,0,0,0-2.32,45.36,17.59,17.59,0,0,0,5.46.87H67.34A27.13,27.13,0,0,1,55.71,147.64Z"/><path class="cls-4" d="M142.08,134.58l-22,32.33a2.35,2.35,0,0,0,.78,3.41l14,0c1.1,0,0,1.33-.28,2.38L119.71,208a2.34,2.34,0,0,0,4.22,1.9l26.84-45.77a2.33,2.33,0,0,0-1.49-3.53l-13.37.08c-1.82,0-.88-1.26-.88-1.26l11.19-22.76A2.34,2.34,0,0,0,142.08,134.58Z"/></svg>