<svg id="Layer_1" data-name="Layer 1" xmlns="http://www.w3.org/2000/svg" viewBox="0 0 250 250"><defs><style>.cls-1{fill:#00d5ff;}.cls-2{fill:#f7f7f7;}</style></defs><path class="cls-1" d="M202.43,90.08a26.2,26.2,0,0,1-12.22,3.54C172.6,94.9,157.86,77.81,156.89,62.4a34.9,34.9,0,0,1,1.49-12.66c.11-.35-.24-1.3-1.36-.76-14.9,7.09-25.18,21.36-22.54,38.85a34.64,34.64,0,0,0,1,4.69,42.89,42.89,0,0,1,10.88,13.07,24.92,24.92,0,0,1,6.45-.88,24.5,24.5,0,0,1,21.53,12.82c14.34-2,24.27-12.87,29.46-26.32C204.23,90.2,202.8,89.87,202.43,90.08Z"/><path class="cls-1" d="M87.6,192.86l0-9.18A2.68,2.68,0,0,0,85,181a2.53,2.53,0,0,0-1.25.33h0l-.06,0-.29.19L76,186.33a7.48,7.48,0,0,0-1.12.74l-.14.09h0a7.89,7.89,0,1,0,12.82,6.73h0v-.12c0-.16,0-.32,0-.48S87.61,193,87.6,192.86Z"/><path class="cls-1" d="M112.07,192.86l0-9.18a2.68,2.68,0,0,0-2.68-2.67,2.53,2.53,0,0,0-1.25.33h0l-.06,0-.29.19-7.31,4.77a7.48,7.48,0,0,0-1.12.74l-.13.09h0a7.89,7.89,0,1,0,12.81,6.73h0v-.12c0-.16,0-.32,0-.48S112.08,193,112.07,192.86Z"/><path class="cls-1" d="M136.54,192.86l0-9.18a2.68,2.68,0,0,0-2.68-2.67,2.53,2.53,0,0,0-1.25.33h0l-.06,0-.28.19L125,186.33a7.48,7.48,0,0,0-1.12.74l-.13.09h0a7.89,7.89,0,1,0,12.81,6.73h0v-.12c0-.16,0-.32,0-.48S136.55,193,136.54,192.86Z"/><path class="cls-1" d="M160.44,192.86l0-9.18a2.67,2.67,0,0,0-2.67-2.67,2.51,2.51,0,0,0-1.25.33h0l-.06,0a2.9,2.9,0,0,0-.29.19l-7.31,4.77a7,7,0,0,0-1.12.74l-.14.09h0a7.89,7.89,0,1,0,12.81,6.73h0v-.12c0-.16,0-.32,0-.48S160.45,193,160.44,192.86Z"/><path class="cls-2" d="M196.16,151.17a23.52,23.52,0,0,0-23.53-23.52l-.4,0a23.4,23.4,0,0,0-29-17.14,40.78,40.78,0,0,0-76.46,14.76,24.87,24.87,0,0,0-2.45,48.47,18.23,18.23,0,0,0,5.75.93h103a18.47,18.47,0,0,0,3.82-.4A23.53,23.53,0,0,0,196.16,151.17Z"/></svg>