<svg id="Layer_1" data-name="Layer 1" xmlns="http://www.w3.org/2000/svg" viewBox="0 0 250 250"><defs><style>.cls-1{fill:#00d5ff;}.cls-2{fill:#f7f7f7;}.cls-3{fill:#ffdd15;}</style></defs><path class="cls-1" d="M86.23,192.51l0-9.17a2.68,2.68,0,0,0-2.68-2.68,2.65,2.65,0,0,0-1.25.33h0l-.06,0-.29.19L74.66,186a8.28,8.28,0,0,0-1.12.73l-.14.09h0a7.89,7.89,0,1,0,12.81,6.74h0v-.12c0-.16,0-.32,0-.48S86.24,192.66,86.23,192.51Z"/><path class="cls-1" d="M110.7,192.51l0-9.17a2.68,2.68,0,0,0-2.68-2.68,2.65,2.65,0,0,0-1.25.33h0l-.06,0-.29.19L99.13,186a8.28,8.28,0,0,0-1.12.73l-.13.09h0a7.89,7.89,0,1,0,12.81,6.74h0v-.12c0-.16,0-.32,0-.48S110.71,192.66,110.7,192.51Z"/><path class="cls-1" d="M135.17,192.51l0-9.17a2.68,2.68,0,0,0-2.68-2.68,2.65,2.65,0,0,0-1.25.33h0l-.06,0-.28.19L123.6,186a8.28,8.28,0,0,0-1.12.73l-.13.09h0a7.89,7.89,0,1,0,12.81,6.74h0v-.12c0-.16,0-.32,0-.48S135.18,192.66,135.17,192.51Z"/><path class="cls-1" d="M159.07,192.51l0-9.17a2.67,2.67,0,0,0-2.67-2.68,2.61,2.61,0,0,0-1.25.33h0l-.06,0a2.9,2.9,0,0,0-.29.19L147.5,186a7.69,7.69,0,0,0-1.12.73l-.14.09h0a7.89,7.89,0,1,0,12.81,6.74h0v-.12c0-.16,0-.32,0-.48S159.08,192.66,159.07,192.51Z"/><path class="cls-2" d="M194.79,150.82a23.52,23.52,0,0,0-23.53-23.52l-.4,0a23.4,23.4,0,0,0-29-17.14,40.78,40.78,0,0,0-76.46,14.76,24.87,24.87,0,0,0-2.45,48.47,18.23,18.23,0,0,0,5.75.93h103a18.47,18.47,0,0,0,3.82-.4A23.52,23.52,0,0,0,194.79,150.82Z"/><rect class="cls-3" x="187.19" y="114.86" width="18.25" height="10.7" rx="5.35" transform="translate(44.24 -52.6) rotate(17.17)"/><rect class="cls-3" x="186.68" y="85.41" width="18.25" height="10.7" rx="5.35" transform="translate(-19.02 70.11) rotate(-19.38)"/><rect class="cls-3" x="170.15" y="61.82" width="18.25" height="10.7" rx="5.35" transform="translate(21.71 175.92) rotate(-55.15)"/><rect class="cls-3" x="114.08" y="61.96" width="18.25" height="10.7" rx="5.35" transform="translate(138.37 206.88) rotate(-124.85)"/><rect class="cls-3" x="142.19" y="52.94" width="18.25" height="10.7" rx="5.35" transform="translate(93.03 209.61) rotate(-90)"/><path class="cls-3" d="M144.46,106.2a24,24,0,0,1,29.8,17.6l.42,0h.17A29.63,29.63,0,1,0,127,88.89,42.06,42.06,0,0,1,144.46,106.2Z"/></svg>