<svg id="Layer_1" data-name="Layer 1" xmlns="http://www.w3.org/2000/svg" viewBox="0 0 250 250"><defs><style>.cls-1{fill:#00d5ff;}.cls-2{fill:#f7f7f7;}</style></defs><path class="cls-1" d="M91.48,172.75l0-9.17a2.65,2.65,0,0,0-3.93-2.35h0l0,0a2.9,2.9,0,0,0-.29.19l-7.31,4.78a8.38,8.38,0,0,0-1.13.73l-.13.09h0a7.89,7.89,0,1,0,12.81,6.74h0v-.12c0-.16,0-.32,0-.48S91.48,172.9,91.48,172.75Z"/><path class="cls-1" d="M116,172.75l0-9.17a2.65,2.65,0,0,0-3.93-2.35h0l-.06,0a2.9,2.9,0,0,0-.29.19l-7.31,4.78a8.38,8.38,0,0,0-1.13.73l-.13.09h0a7.89,7.89,0,1,0,12.81,6.74h0v-.12c0-.16,0-.32,0-.48S116,172.9,116,172.75Z"/><path class="cls-1" d="M140.42,172.75l0-9.17a2.65,2.65,0,0,0-3.93-2.35h0l-.06,0a2.9,2.9,0,0,0-.29.19l-7.31,4.78a8.38,8.38,0,0,0-1.13.73l-.13.09h0a7.89,7.89,0,1,0,12.81,6.74h0v-.12c0-.16,0-.32,0-.48S140.43,172.9,140.42,172.75Z"/><path class="cls-1" d="M164.31,172.75l0-9.17a2.68,2.68,0,0,0-2.68-2.68,2.65,2.65,0,0,0-1.25.33h0l-.06,0-.28.19-7.31,4.78a7.8,7.8,0,0,0-1.13.73l-.13.09h0a7.89,7.89,0,1,0,12.81,6.74h0v-.12c0-.16,0-.32,0-.48S164.32,172.9,164.31,172.75Z"/><path class="cls-2" d="M200,131.06a23.52,23.52,0,0,0-23.52-23.52l-.41,0a23.51,23.51,0,0,0-22.84-18,23.27,23.27,0,0,0-6.17.85,40.78,40.78,0,0,0-76.47,14.76,24.87,24.87,0,0,0-2.44,48.47,18.13,18.13,0,0,0,5.74.94H177a18.38,18.38,0,0,0,3.81-.41A23.52,23.52,0,0,0,200,131.06Z"/></svg>