<svg id="Layer_1" data-name="Layer 1" xmlns="http://www.w3.org/2000/svg" viewBox="0 0 250 250"><defs><style>.cls-1{fill:#00d5ff;}.cls-2{fill:#f7f7f7;}</style></defs><path class="cls-1" d="M202.43,88.18a26.2,26.2,0,0,1-12.22,3.54C172.6,93,157.86,75.91,156.89,60.5a34.9,34.9,0,0,1,1.49-12.66c.11-.35-.24-1.3-1.36-.76-14.9,7.09-25.18,21.36-22.54,38.85a35.12,35.12,0,0,0,1,4.7,42.73,42.73,0,0,1,10.88,13.06,24.92,24.92,0,0,1,6.45-.88,24.5,24.5,0,0,1,21.53,12.82c14.34-2,24.27-12.87,29.46-26.32C204.23,88.3,202.8,88,202.43,88.18Z"/><path class="cls-1" d="M87.6,191l0-9.18A2.68,2.68,0,0,0,85,179.11a2.53,2.53,0,0,0-1.25.33h0l-.06,0-.29.19L76,184.43a7.48,7.48,0,0,0-1.12.74l-.14.09h0A7.89,7.89,0,1,0,87.6,192h0v-.12c0-.16,0-.32,0-.48S87.61,191.1,87.6,191Z"/><path class="cls-1" d="M112.07,191l0-9.18a2.68,2.68,0,0,0-2.68-2.67,2.53,2.53,0,0,0-1.25.33h0l-.06,0-.29.19-7.31,4.77a7.48,7.48,0,0,0-1.12.74l-.13.09h0A7.89,7.89,0,1,0,112.07,192h0v-.12c0-.16,0-.32,0-.48S112.08,191.1,112.07,191Z"/><path class="cls-1" d="M136.54,191l0-9.18a2.68,2.68,0,0,0-2.68-2.67,2.53,2.53,0,0,0-1.25.33h0l-.06,0-.28.19L125,184.43a7.48,7.48,0,0,0-1.12.74l-.13.09h0A7.89,7.89,0,1,0,136.54,192h0v-.12c0-.16,0-.32,0-.48S136.55,191.1,136.54,191Z"/><path class="cls-1" d="M160.44,191l0-9.18a2.67,2.67,0,0,0-2.67-2.67,2.51,2.51,0,0,0-1.25.33h0l-.06,0a2.9,2.9,0,0,0-.29.19l-7.31,4.77a7,7,0,0,0-1.12.74l-.14.09h0A7.89,7.89,0,1,0,160.43,192h0v-.12c0-.16,0-.32,0-.48S160.45,191.1,160.44,191Z"/><path class="cls-1" d="M143.81,211.22l0-9.17a2.65,2.65,0,0,0-3.93-2.35h0l-.06,0a2.9,2.9,0,0,0-.29.19l-7.31,4.78a7.69,7.69,0,0,0-1.12.73l-.14.09h0a7.88,7.88,0,1,0,12.81,6.73h0v-.11c0-.16,0-.32,0-.49S143.82,211.37,143.81,211.22Z"/><path class="cls-1" d="M119,211.22l0-9.17a2.65,2.65,0,0,0-3.93-2.35h0l-.05,0a2.9,2.9,0,0,0-.29.19l-7.31,4.78a8.38,8.38,0,0,0-1.13.73l-.13.09h0A7.88,7.88,0,1,0,119,212.26h0v-.11c0-.16,0-.32,0-.49S119,211.37,119,211.22Z"/><path class="cls-1" d="M94.68,211.22l0-9.17a2.65,2.65,0,0,0-3.93-2.35h0l-.06,0a2.9,2.9,0,0,0-.29.19l-7.31,4.78a8.38,8.38,0,0,0-1.13.73l-.13.09h0a7.88,7.88,0,1,0,12.81,6.73h0v-.11c0-.16,0-.32,0-.49S94.68,211.37,94.68,211.22Z"/><path class="cls-2" d="M196.16,149.27a23.52,23.52,0,0,0-23.53-23.52l-.4,0a23.4,23.4,0,0,0-29-17.14,40.78,40.78,0,0,0-76.46,14.76,24.87,24.87,0,0,0-2.45,48.47,18.23,18.23,0,0,0,5.75.93h103a18.47,18.47,0,0,0,3.82-.4A23.53,23.53,0,0,0,196.16,149.27Z"/></svg>