<svg id="Layer_1" data-name="Layer 1" xmlns="http://www.w3.org/2000/svg" viewBox="0 0 250 250"><defs><style>.cls-1{fill:#00d5ff;}.cls-2{fill:#f7f7f7;}.cls-3{fill:#ffdd15;}</style></defs><path class="cls-1" d="M86.23,190.65l0-9.18a2.68,2.68,0,0,0-2.68-2.67,2.64,2.64,0,0,0-1.25.32h0l-.06,0-.29.19-7.31,4.77a7.48,7.48,0,0,0-1.12.74l-.14.08h0a7.89,7.89,0,1,0,12.81,6.73h0v-.12c0-.16,0-.32,0-.48S86.24,190.79,86.23,190.65Z"/><path class="cls-1" d="M110.7,190.65l0-9.18a2.68,2.68,0,0,0-2.68-2.67,2.64,2.64,0,0,0-1.25.32h0l-.06,0-.29.19-7.31,4.77a7.48,7.48,0,0,0-1.12.74l-.13.08h0a7.89,7.89,0,1,0,12.81,6.73h0v-.12c0-.16,0-.32,0-.48S110.71,190.79,110.7,190.65Z"/><path class="cls-1" d="M135.17,190.65l0-9.18a2.68,2.68,0,0,0-2.68-2.67,2.64,2.64,0,0,0-1.25.32h0l-.06,0-.28.19-7.32,4.77a7.48,7.48,0,0,0-1.12.74l-.13.08h0a7.89,7.89,0,1,0,12.81,6.73h0v-.12c0-.16,0-.32,0-.48S135.18,190.79,135.17,190.65Z"/><path class="cls-1" d="M159.07,190.65l0-9.18a2.67,2.67,0,0,0-2.67-2.67,2.61,2.61,0,0,0-1.25.32h0l-.06,0a2.9,2.9,0,0,0-.29.19l-7.31,4.77a7,7,0,0,0-1.12.74l-.14.08h0a7.89,7.89,0,1,0,12.81,6.73h0v-.12c0-.16,0-.32,0-.48S159.08,190.79,159.07,190.65Z"/><path class="cls-1" d="M142.44,210.91l0-9.17a2.65,2.65,0,0,0-3.93-2.35h0l-.06,0a2.9,2.9,0,0,0-.29.19l-7.31,4.78a7.69,7.69,0,0,0-1.12.73l-.14.09h0A7.89,7.89,0,1,0,142.43,212h0v-.11c0-.17,0-.33,0-.49S142.45,211.06,142.44,210.91Z"/><path class="cls-1" d="M117.59,210.91l0-9.17a2.65,2.65,0,0,0-3.93-2.35h0l0,0a2.9,2.9,0,0,0-.29.19L106,204.39a8.38,8.38,0,0,0-1.13.73l-.13.09h0A7.89,7.89,0,1,0,117.58,212h0v-.11c0-.17,0-.33,0-.49S117.59,211.06,117.59,210.91Z"/><path class="cls-1" d="M93.31,210.91l0-9.17a2.65,2.65,0,0,0-3.93-2.35h0l-.06,0a2.9,2.9,0,0,0-.29.19l-7.31,4.78a8.38,8.38,0,0,0-1.13.73l-.13.09h0A7.89,7.89,0,1,0,93.3,212h0v-.11c0-.17,0-.33,0-.49S93.31,211.06,93.31,210.91Z"/><path class="cls-2" d="M194.79,149a23.53,23.53,0,0,0-23.53-23.53l-.4,0a23.4,23.4,0,0,0-29-17.14,40.78,40.78,0,0,0-76.46,14.76,24.87,24.87,0,0,0-2.45,48.47,18.52,18.52,0,0,0,5.75.93h103a18.47,18.47,0,0,0,3.82-.4A23.53,23.53,0,0,0,194.79,149Z"/><rect class="cls-3" x="187.19" y="112.99" width="18.25" height="10.7" rx="5.35" transform="translate(43.69 -52.68) rotate(17.17)"/><rect class="cls-3" x="186.68" y="83.54" width="18.25" height="10.7" rx="5.35" transform="matrix(0.94, -0.33, 0.33, 0.94, -18.4, 70)"/><rect class="cls-3" x="170.15" y="59.96" width="18.25" height="10.7" rx="5.35" transform="translate(23.24 175.12) rotate(-55.15)"/><rect class="cls-3" x="114.08" y="60.1" width="18.25" height="10.7" rx="5.35" transform="translate(139.9 203.96) rotate(-124.85)"/><rect class="cls-3" x="142.19" y="51.08" width="18.25" height="10.7" rx="5.35" transform="translate(94.89 207.74) rotate(-90)"/><path class="cls-3" d="M144.46,104.33a24,24,0,0,1,29.8,17.61l.42,0h.17A29.63,29.63,0,1,0,127,87,42.1,42.1,0,0,1,144.46,104.33Z"/></svg>