<svg id="Layer_1" data-name="Layer 1" xmlns="http://www.w3.org/2000/svg" viewBox="0 0 250 250"><defs><style>.cls-1{fill:#00d5ff;}.cls-2{fill:#f7f7f7;}</style></defs><path class="cls-1" d="M202.43,69.15a26.31,26.31,0,0,1-12.22,3.54C172.6,74,157.86,56.88,156.89,41.46a34.85,34.85,0,0,1,1.49-12.65c.11-.36-.24-1.31-1.36-.77-14.9,7.1-25.18,21.36-22.54,38.85a34.45,34.45,0,0,0,1,4.7A42.66,42.66,0,0,1,146.4,84.66a24.42,24.42,0,0,1,28,11.93c14.34-2,24.27-12.87,29.46-26.32C204.23,69.27,202.8,68.93,202.43,69.15Z"/><path class="cls-1" d="M87.6,171.92l0-9.17A2.68,2.68,0,0,0,85,160.07a2.65,2.65,0,0,0-1.25.33h0l-.06,0a2.29,2.29,0,0,0-.29.18L76,165.4a8.28,8.28,0,0,0-1.12.73l-.14.09h0A7.89,7.89,0,1,0,87.6,173h0v-.11c0-.16,0-.32,0-.49S87.61,172.07,87.6,171.92Z"/><path class="cls-1" d="M112.07,171.92l0-9.17a2.68,2.68,0,0,0-2.68-2.68,2.65,2.65,0,0,0-1.25.33h0l-.06,0a2.29,2.29,0,0,0-.29.18l-7.31,4.78a8.28,8.28,0,0,0-1.12.73l-.13.09h0A7.88,7.88,0,1,0,112.07,173h0v-.11c0-.16,0-.32,0-.49S112.08,172.07,112.07,171.92Z"/><path class="cls-1" d="M136.54,171.92l0-9.17a2.68,2.68,0,0,0-2.68-2.68,2.65,2.65,0,0,0-1.25.33h0l-.06,0a1.67,1.67,0,0,0-.28.18L125,165.4a8.28,8.28,0,0,0-1.12.73l-.13.09h0A7.88,7.88,0,1,0,136.54,173h0v-.11c0-.16,0-.32,0-.49S136.55,172.07,136.54,171.92Z"/><path class="cls-1" d="M160.44,171.92l0-9.17a2.67,2.67,0,0,0-2.67-2.68,2.61,2.61,0,0,0-1.25.33h0l-.06,0a1.75,1.75,0,0,0-.29.18l-7.31,4.78a7.69,7.69,0,0,0-1.12.73l-.14.09h0A7.88,7.88,0,1,0,160.43,173h0v-.11c0-.16,0-.32,0-.49S160.45,172.07,160.44,171.92Z"/><path class="cls-1" d="M143.81,192.19l0-9.18a2.66,2.66,0,0,0-3.93-2.35h0l-.06,0a2.9,2.9,0,0,0-.29.19l-7.31,4.77a7,7,0,0,0-1.12.74l-.14.09h0a7.89,7.89,0,1,0,12.81,6.73h0v-.12c0-.16,0-.32,0-.48S143.82,192.33,143.81,192.19Z"/><path class="cls-1" d="M119,192.19l0-9.18a2.66,2.66,0,0,0-3.93-2.35h0l-.05,0a2.9,2.9,0,0,0-.29.19l-7.31,4.77a7.57,7.57,0,0,0-1.13.74l-.13.09h0A7.89,7.89,0,1,0,119,193.22h0v-.12c0-.16,0-.32,0-.48S119,192.33,119,192.19Z"/><path class="cls-1" d="M101.27,213.79l0-9.17a2.65,2.65,0,0,0-3.93-2.35h0l-.06,0a1.75,1.75,0,0,0-.29.18l-7.31,4.78a8.38,8.38,0,0,0-1.13.73l-.13.09h0a7.88,7.88,0,1,0,12.81,6.73h0v-.11c0-.16,0-.32,0-.49S101.28,213.94,101.27,213.79Z"/><path class="cls-1" d="M94.68,192.19l0-9.18a2.66,2.66,0,0,0-3.93-2.35h0l-.06,0a2.9,2.9,0,0,0-.29.19l-7.31,4.77a7.57,7.57,0,0,0-1.13.74l-.13.09h0a7.89,7.89,0,1,0,12.81,6.73h0v-.12c0-.16,0-.32,0-.48S94.68,192.33,94.68,192.19Z"/><path class="cls-2" d="M196.16,130.23a23.52,23.52,0,0,0-23.53-23.52l-.4,0a23.4,23.4,0,0,0-29-17.14,40.78,40.78,0,0,0-76.46,14.76,24.87,24.87,0,0,0-2.45,48.47,18.24,18.24,0,0,0,5.75.94h103a18.47,18.47,0,0,0,3.82-.41A23.52,23.52,0,0,0,196.16,130.23Z"/></svg>