<svg id="Layer_1" data-name="Layer 1" xmlns="http://www.w3.org/2000/svg" viewBox="0 0 250 250"><defs><style>.cls-1{fill:#00d5ff;}.cls-2{fill:#f7f7f7;}.cls-3{fill:#ffdd15;}</style></defs><path class="cls-1" d="M85.69,171.73l0-9.17a2.65,2.65,0,0,0-3.93-2.35h0l-.06,0a2.9,2.9,0,0,0-.29.19l-7.31,4.78a8.38,8.38,0,0,0-1.13.73l-.13.09h0a7.89,7.89,0,1,0,12.81,6.74h0v-.12c0-.16,0-.32,0-.48S85.69,171.88,85.69,171.73Z"/><path class="cls-1" d="M110.16,171.73l0-9.17a2.65,2.65,0,0,0-3.93-2.35h0l-.06,0a2.9,2.9,0,0,0-.29.19l-7.31,4.78a8.38,8.38,0,0,0-1.13.73l-.13.09h0a7.89,7.89,0,1,0,12.81,6.74h0v-.12c0-.16,0-.32,0-.48S110.16,171.88,110.16,171.73Z"/><path class="cls-1" d="M134.63,171.73l0-9.17a2.65,2.65,0,0,0-3.93-2.35h0l-.06,0a2.9,2.9,0,0,0-.29.19l-7.31,4.78a8.38,8.38,0,0,0-1.13.73l-.13.09h0a7.89,7.89,0,1,0,12.81,6.74h0v-.12c0-.16,0-.32,0-.48S134.64,171.88,134.63,171.73Z"/><path class="cls-1" d="M158.52,171.73l0-9.17a2.68,2.68,0,0,0-2.68-2.68,2.65,2.65,0,0,0-1.25.33h0l-.06,0-.28.19L147,165.21a7.8,7.8,0,0,0-1.13.73l-.13.09h0a7.89,7.89,0,1,0,12.81,6.74h0v-.12c0-.16,0-.32,0-.48S158.53,171.88,158.52,171.73Z"/><path class="cls-1" d="M141.89,192l0-9.17a2.66,2.66,0,0,0-2.67-2.67,2.61,2.61,0,0,0-1.25.32h0l-.06,0-.29.19-7.31,4.77a7.48,7.48,0,0,0-1.12.74l-.14.08h0A7.88,7.88,0,1,0,141.88,193h0v-.11c0-.16,0-.32,0-.49S141.9,192.14,141.89,192Z"/><path class="cls-1" d="M117,192l0-9.17a2.66,2.66,0,0,0-3.93-2.35h0l-.06,0a2.9,2.9,0,0,0-.29.19l-7.31,4.77a7,7,0,0,0-1.12.74l-.14.08h0A7.88,7.88,0,1,0,117,193h0v-.11c0-.16,0-.32,0-.49S117.05,192.14,117,192Z"/><path class="cls-1" d="M99.35,213.6l0-9.17a2.67,2.67,0,0,0-2.67-2.68,2.61,2.61,0,0,0-1.25.33h0l-.06,0a2.9,2.9,0,0,0-.29.19l-7.31,4.78a7.69,7.69,0,0,0-1.12.73l-.14.09h0a7.89,7.89,0,1,0,12.81,6.74h0v-.12c0-.16,0-.32,0-.48S99.36,213.75,99.35,213.6Z"/><path class="cls-1" d="M92.76,192l0-9.17a2.66,2.66,0,0,0-3.93-2.35h0l-.06,0a2.9,2.9,0,0,0-.29.19l-7.31,4.77a7,7,0,0,0-1.12.74l-.14.08h0A7.88,7.88,0,1,0,92.75,193h0v-.11c0-.16,0-.32,0-.49S92.77,192.14,92.76,192Z"/><path class="cls-2" d="M194.79,129.73a23.52,23.52,0,0,0-23.53-23.52l-.4,0a23.4,23.4,0,0,0-29-17.14,40.78,40.78,0,0,0-76.46,14.76,24.87,24.87,0,0,0-2.45,48.47,18.23,18.23,0,0,0,5.75.93h103a18.47,18.47,0,0,0,3.82-.4A23.52,23.52,0,0,0,194.79,129.73Z"/><rect class="cls-3" x="187.19" y="93.77" width="18.25" height="10.7" rx="5.35" transform="translate(38.01 -53.54) rotate(17.17)"/><rect class="cls-3" x="186.68" y="64.32" width="18.25" height="10.7" rx="5.35" transform="translate(-12.02 68.91) rotate(-19.38)"/><rect class="cls-3" x="170.15" y="40.73" width="18.25" height="10.7" rx="5.35" transform="translate(39.02 166.88) rotate(-55.15)"/><rect class="cls-3" x="114.08" y="40.87" width="18.25" height="10.7" rx="5.35" transform="translate(155.68 173.74) rotate(-124.85)"/><rect class="cls-3" x="142.19" y="31.85" width="18.25" height="10.7" rx="5.35" transform="translate(114.12 188.51) rotate(-90)"/><path class="cls-3" d="M144.46,85.11a24,24,0,0,1,29.8,17.6l.42,0h.17A29.63,29.63,0,1,0,127,67.8,42.06,42.06,0,0,1,144.46,85.11Z"/></svg>