<svg id="Layer_1" data-name="Layer 1" xmlns="http://www.w3.org/2000/svg" viewBox="0 0 250 250"><defs><style>.cls-1{fill:#00d5ff;}.cls-2{fill:#f7f7f7;}</style></defs><path class="cls-1" d="M90.93,152l0-9.17A2.65,2.65,0,0,0,87,140.45h0l-.06,0a2.9,2.9,0,0,0-.29.19l-7.31,4.78a7.69,7.69,0,0,0-1.12.73l-.14.09h0A7.89,7.89,0,1,0,90.92,153h0v-.11c0-.17,0-.33,0-.49S90.94,152.12,90.93,152Z"/><path class="cls-1" d="M115.4,152l0-9.17a2.65,2.65,0,0,0-3.93-2.35h0l-.06,0a2.9,2.9,0,0,0-.29.19l-7.31,4.78a7.69,7.69,0,0,0-1.12.73l-.14.09h0A7.89,7.89,0,1,0,115.39,153h0v-.11c0-.17,0-.33,0-.49S115.41,152.12,115.4,152Z"/><path class="cls-1" d="M139.87,152l0-9.17a2.67,2.67,0,0,0-2.67-2.68,2.61,2.61,0,0,0-1.25.33h0l-.06,0a2.9,2.9,0,0,0-.29.19l-7.31,4.78a7.69,7.69,0,0,0-1.12.73l-.14.09h0A7.89,7.89,0,1,0,139.86,153h0v-.11c0-.17,0-.33,0-.49S139.88,152.12,139.87,152Z"/><path class="cls-1" d="M163.77,152l0-9.17a2.65,2.65,0,0,0-3.93-2.35h0l-.06,0a2.9,2.9,0,0,0-.29.19l-7.31,4.78a8.38,8.38,0,0,0-1.13.73l-.13.09h0A7.89,7.89,0,1,0,163.76,153h0v-.11c0-.17,0-.33,0-.49S163.78,152.12,163.77,152Z"/><path class="cls-1" d="M147.14,172.24l0-9.18a2.66,2.66,0,0,0-3.93-2.35h0l-.05,0a2.08,2.08,0,0,0-.29.19l-7.31,4.77a7.57,7.57,0,0,0-1.13.74l-.13.08h0a7.88,7.88,0,1,0,12.81,6.73h0v-.11c0-.16,0-.32,0-.48S147.14,172.38,147.14,172.24Z"/><path class="cls-1" d="M122.28,172.24l0-9.18a2.66,2.66,0,0,0-3.92-2.35h0l-.06,0-.29.19-7.31,4.77a7.48,7.48,0,0,0-1.12.74l-.14.08h0a7.88,7.88,0,1,0,12.81,6.73h0v-.11c0-.16,0-.32,0-.48S122.29,172.38,122.28,172.24Z"/><path class="cls-1" d="M104.59,193.84l0-9.17a2.68,2.68,0,0,0-2.68-2.68,2.65,2.65,0,0,0-1.25.33h0l-.06,0-.28.19L93,187.32a7.8,7.8,0,0,0-1.13.73l-.13.09h0a7.89,7.89,0,1,0,12.81,6.74h0v-.11c0-.17,0-.33,0-.49S104.6,194,104.59,193.84Z"/><path class="cls-1" d="M98,172.24l0-9.18a2.67,2.67,0,0,0-2.68-2.67,2.64,2.64,0,0,0-1.25.32h0l-.06,0-.29.19-7.31,4.77a7.48,7.48,0,0,0-1.12.74l-.14.08h0A7.89,7.89,0,1,0,98,173.27h0v-.11c0-.16,0-.32,0-.48S98,172.38,98,172.24Z"/><path class="cls-2" d="M200,110a23.52,23.52,0,0,0-23.52-23.52l-.41,0a23.51,23.51,0,0,0-22.84-18,23.27,23.27,0,0,0-6.17.85A40.78,40.78,0,0,0,70.62,84.09a24.87,24.87,0,0,0-2.44,48.47,18.12,18.12,0,0,0,5.74.93H177a18.38,18.38,0,0,0,3.81-.4A23.52,23.52,0,0,0,200,110Z"/></svg>