<svg id="Layer_1" data-name="Layer 1" xmlns="http://www.w3.org/2000/svg" viewBox="0 0 250 250"><defs><style>.cls-1{fill:#00d5ff;}.cls-2{fill:#f7f7f7;}</style></defs><path class="cls-1" d="M202.43,94.71a26.19,26.19,0,0,1-12.22,3.53C172.6,99.52,157.86,82.44,156.89,67a34.85,34.85,0,0,1,1.49-12.65c.11-.36-.24-1.31-1.36-.77-14.9,7.1-25.18,21.36-22.54,38.85a34.45,34.45,0,0,0,1,4.7,42.66,42.66,0,0,1,10.88,13.07,24.42,24.42,0,0,1,28,11.93c14.34-2,24.27-12.87,29.46-26.32C204.23,94.83,202.8,94.49,202.43,94.71Z"/><path class="cls-2" d="M196.16,155.79a23.52,23.52,0,0,0-23.53-23.52l-.4,0a23.4,23.4,0,0,0-29-17.14,40.78,40.78,0,0,0-76.46,14.76,24.87,24.87,0,0,0-2.45,48.47,18.24,18.24,0,0,0,5.75.94h103a18.47,18.47,0,0,0,3.82-.41A23.52,23.52,0,0,0,196.16,155.79Z"/><circle class="cls-1" cx="85.2" cy="191.05" r="5.51"/><circle class="cls-1" cx="107.67" cy="191.05" r="5.51"/><circle class="cls-1" cx="130.15" cy="191.05" r="5.51"/><circle class="cls-1" cx="152.63" cy="191.05" r="5.51"/></svg>