<svg id="Layer_1" data-name="Layer 1" xmlns="http://www.w3.org/2000/svg" viewBox="0 0 250 250"><defs><style>.cls-1{fill:#f7f7f7;}.cls-2{fill:#ffdd15;}.cls-3{fill:#00d5ff;}</style></defs><path class="cls-1" d="M194.79,155.29a23.52,23.52,0,0,0-23.53-23.52l-.4,0a23.4,23.4,0,0,0-29-17.14,40.78,40.78,0,0,0-76.46,14.76,24.87,24.87,0,0,0-2.45,48.47,18.23,18.23,0,0,0,5.75.93h103a18.47,18.47,0,0,0,3.82-.4A23.53,23.53,0,0,0,194.79,155.29Z"/><rect class="cls-2" x="187.19" y="119.33" width="18.25" height="10.7" rx="5.35" transform="translate(45.56 -52.4) rotate(17.17)"/><rect class="cls-2" x="186.68" y="89.88" width="18.25" height="10.7" rx="5.35" transform="translate(-20.5 70.36) rotate(-19.38)"/><rect class="cls-2" x="170.15" y="66.29" width="18.25" height="10.7" rx="5.35" transform="translate(18.04 177.83) rotate(-55.15)"/><rect class="cls-2" x="114.08" y="66.43" width="18.25" height="10.7" rx="5.35" transform="translate(134.71 213.91) rotate(-124.85)"/><rect class="cls-2" x="142.19" y="57.41" width="18.25" height="10.7" rx="5.35" transform="translate(88.56 214.07) rotate(-90)"/><path class="cls-2" d="M144.46,110.67a24,24,0,0,1,29.8,17.6l.42,0h.17A29.63,29.63,0,1,0,127,93.36,42.06,42.06,0,0,1,144.46,110.67Z"/><circle class="cls-3" cx="81.61" cy="190.86" r="5.51"/><circle class="cls-3" cx="104.09" cy="190.86" r="5.51"/><circle class="cls-3" cx="126.57" cy="190.86" r="5.51"/><circle class="cls-3" cx="149.05" cy="190.86" r="5.51"/></svg>