<svg id="Layer_1" data-name="Layer 1" xmlns="http://www.w3.org/2000/svg" viewBox="0 0 250 250"><defs><style>.cls-1{fill:#f7f7f7;}.cls-2{fill:#00d5ff;}</style></defs><path class="cls-1" d="M200,128.88a23.52,23.52,0,0,0-23.52-23.53l-.41,0a23.44,23.44,0,0,0-29-17.14A40.79,40.79,0,0,0,70.62,103a24.86,24.86,0,0,0-2.44,48.46,18.13,18.13,0,0,0,5.74.94H177a17.72,17.72,0,0,0,3.81-.41A23.51,23.51,0,0,0,200,128.88Z"/><circle class="cls-2" cx="91.28" cy="164.13" r="5.51"/><circle class="cls-2" cx="113.76" cy="164.13" r="5.51"/><circle class="cls-2" cx="136.24" cy="164.13" r="5.51"/><circle class="cls-2" cx="158.72" cy="164.13" r="5.51"/><circle class="cls-2" cx="79.81" cy="177.75" r="5.51"/><circle class="cls-2" cx="102.29" cy="177.75" r="5.51"/><circle class="cls-2" cx="124.77" cy="177.75" r="5.51"/><circle class="cls-2" cx="147.25" cy="177.75" r="5.51"/></svg>