<svg id="Layer_1" data-name="Layer 1" xmlns="http://www.w3.org/2000/svg" viewBox="0 0 250 250"><defs><style>.cls-1{fill:#f7f7f7;}.cls-2{fill:#ffdd15;}.cls-3{fill:#00d5ff;}</style></defs><path class="cls-1" d="M194.79,148.48A23.52,23.52,0,0,0,171.26,125l-.4,0a23.4,23.4,0,0,0-29-17.14A40.78,40.78,0,0,0,65.38,122.6a24.87,24.87,0,0,0-2.45,48.47,18.23,18.23,0,0,0,5.75.93h103a18.47,18.47,0,0,0,3.82-.4A23.53,23.53,0,0,0,194.79,148.48Z"/><rect class="cls-2" x="187.19" y="112.52" width="18.25" height="10.7" rx="5.35" transform="translate(43.55 -52.71) rotate(17.17)"/><rect class="cls-2" x="186.68" y="83.07" width="18.25" height="10.7" rx="5.35" transform="translate(-18.24 69.97) rotate(-19.38)"/><rect class="cls-2" x="170.15" y="59.48" width="18.25" height="10.7" rx="5.35" transform="matrix(0.57, -0.82, 0.82, 0.57, 23.63, 174.91)"/><rect class="cls-2" x="114.08" y="59.62" width="18.25" height="10.7" rx="5.35" transform="translate(140.29 203.21) rotate(-124.85)"/><rect class="cls-2" x="142.19" y="50.6" width="18.25" height="10.7" rx="5.35" transform="translate(95.37 207.26) rotate(-90)"/><path class="cls-2" d="M144.46,103.86a24,24,0,0,1,29.8,17.6l.42,0h.17A29.63,29.63,0,1,0,127,86.55,42.06,42.06,0,0,1,144.46,103.86Z"/><circle class="cls-3" cx="81.61" cy="184.05" r="5.51"/><circle class="cls-3" cx="104.09" cy="184.05" r="5.51"/><circle class="cls-3" cx="126.57" cy="184.05" r="5.51"/><circle class="cls-3" cx="149.05" cy="184.05" r="5.51"/><circle class="cls-3" cx="70.14" cy="197.67" r="5.51"/><circle class="cls-3" cx="92.62" cy="197.67" r="5.51"/><circle class="cls-3" cx="115.1" cy="197.67" r="5.51"/><circle class="cls-3" cx="137.58" cy="197.67" r="5.51"/></svg>