<svg id="Layer_1" data-name="Layer 1" xmlns="http://www.w3.org/2000/svg" viewBox="0 0 250 250"><defs><style>.cls-1{fill:#f7f7f7;}.cls-2{fill:#ffdd15;}.cls-3{fill:#00d5ff;}</style></defs><path class="cls-1" d="M194.79,141.67a23.52,23.52,0,0,0-23.53-23.52l-.4,0a23.4,23.4,0,0,0-29-17.14,40.78,40.78,0,0,0-76.46,14.76,24.87,24.87,0,0,0-2.45,48.47,18.23,18.23,0,0,0,5.75.93h103a18.47,18.47,0,0,0,3.82-.4A23.53,23.53,0,0,0,194.79,141.67Z"/><rect class="cls-2" x="187.19" y="105.7" width="18.25" height="10.7" rx="5.35" transform="matrix(0.96, 0.3, -0.3, 0.96, 41.54, -53.01)"/><rect class="cls-2" x="186.68" y="76.25" width="18.25" height="10.7" rx="5.35" transform="translate(-15.98 69.59) rotate(-19.38)"/><rect class="cls-2" x="170.15" y="52.67" width="18.25" height="10.7" rx="5.35" transform="translate(29.22 171.99) rotate(-55.15)"/><rect class="cls-2" x="114.08" y="52.81" width="18.25" height="10.7" rx="5.35" transform="translate(145.88 192.5) rotate(-124.85)"/><rect class="cls-2" x="142.19" y="43.79" width="18.25" height="10.7" rx="5.35" transform="translate(102.18 200.45) rotate(-90)"/><path class="cls-2" d="M144.46,97a24.5,24.5,0,0,1,6.34-.86,24.15,24.15,0,0,1,23.46,18.47l.42,0h.17A29.63,29.63,0,1,0,127,79.74,42.1,42.1,0,0,1,144.46,97Z"/><circle class="cls-3" cx="81.61" cy="177.24" r="5.51"/><circle class="cls-3" cx="104.09" cy="177.24" r="5.51"/><circle class="cls-3" cx="126.57" cy="177.24" r="5.51"/><circle class="cls-3" cx="149.05" cy="177.24" r="5.51"/><circle class="cls-3" cx="70.14" cy="190.86" r="5.51"/><circle class="cls-3" cx="92.62" cy="190.86" r="5.51"/><circle class="cls-3" cx="115.1" cy="190.86" r="5.51"/><circle class="cls-3" cx="137.58" cy="190.86" r="5.51"/><circle class="cls-3" cx="81.61" cy="204.48" r="5.51"/><circle class="cls-3" cx="104.09" cy="204.48" r="5.51"/><circle class="cls-3" cx="126.57" cy="204.48" r="5.51"/></svg>