<svg id="Layer_1" data-name="Layer 1" xmlns="http://www.w3.org/2000/svg" viewBox="0 0 250 250"><defs><style>.cls-1{fill:#f7f7f7;}.cls-2{fill:#00d5ff;}</style></defs><path class="cls-1" d="M200,122.07a23.52,23.52,0,0,0-23.52-23.53l-.41,0a23.44,23.44,0,0,0-29-17.14A40.78,40.78,0,0,0,70.62,96.18a24.87,24.87,0,0,0-2.44,48.47,18.13,18.13,0,0,0,5.74.94H177a17.72,17.72,0,0,0,3.81-.41A23.51,23.51,0,0,0,200,122.07Z"/><circle class="cls-2" cx="91.28" cy="157.32" r="5.51"/><circle class="cls-2" cx="113.76" cy="157.32" r="5.51"/><circle class="cls-2" cx="136.24" cy="157.32" r="5.51"/><circle class="cls-2" cx="158.72" cy="157.32" r="5.51"/><circle class="cls-2" cx="79.81" cy="170.94" r="5.51"/><circle class="cls-2" cx="102.29" cy="170.94" r="5.51"/><circle class="cls-2" cx="124.77" cy="170.94" r="5.51"/><circle class="cls-2" cx="147.25" cy="170.94" r="5.51"/><circle class="cls-2" cx="91.28" cy="184.57" r="5.51"/><circle class="cls-2" cx="113.76" cy="184.57" r="5.51"/><circle class="cls-2" cx="136.24" cy="184.57" r="5.51"/></svg>