<svg id="Layer_1" data-name="Layer 1" xmlns="http://www.w3.org/2000/svg" viewBox="0 0 250 250"><defs><style>.cls-1{fill:#00d5ff;}.cls-2{fill:#f7f7f7;}</style></defs><path class="cls-1" d="M202.43,81.08a26.08,26.08,0,0,1-12.22,3.54c-17.61,1.28-32.35-15.8-33.32-31.22a34.82,34.82,0,0,1,1.49-12.65c.11-.36-.24-1.31-1.36-.77-14.9,7.1-25.18,21.36-22.54,38.85a34.78,34.78,0,0,0,1,4.7A42.66,42.66,0,0,1,146.4,96.6a24.42,24.42,0,0,1,28,11.93c14.34-2,24.27-12.87,29.46-26.32C204.23,81.21,202.8,80.87,202.43,81.08Z"/><path class="cls-2" d="M196.16,142.17a23.52,23.52,0,0,0-23.53-23.52l-.4,0a23.4,23.4,0,0,0-29-17.14,40.78,40.78,0,0,0-76.46,14.76,24.87,24.87,0,0,0-2.45,48.47,18.24,18.24,0,0,0,5.75.94h103a18.47,18.47,0,0,0,3.82-.41A23.52,23.52,0,0,0,196.16,142.17Z"/><circle class="cls-1" cx="85.2" cy="177.43" r="5.51"/><circle class="cls-1" cx="107.67" cy="177.43" r="5.51"/><circle class="cls-1" cx="130.15" cy="177.43" r="5.51"/><circle class="cls-1" cx="152.63" cy="177.43" r="5.51"/><circle class="cls-1" cx="73.73" cy="191.05" r="5.51"/><circle class="cls-1" cx="96.2" cy="191.05" r="5.51"/><circle class="cls-1" cx="118.68" cy="191.05" r="5.51"/><circle class="cls-1" cx="141.16" cy="191.05" r="5.51"/><circle class="cls-1" cx="85.24" cy="204.67" r="5.51"/><circle class="cls-1" cx="107.72" cy="204.67" r="5.51"/><circle class="cls-1" cx="130.19" cy="204.67" r="5.51"/></svg>