<svg id="Layer_1" data-name="Layer 1" xmlns="http://www.w3.org/2000/svg" viewBox="0 0 250 250"><defs><style>.cls-1{fill:#00d5ff;}.cls-2{fill:#f7f7f7;}</style></defs><path class="cls-1" d="M202.43,88.41A26.2,26.2,0,0,1,190.21,92c-17.61,1.28-32.35-15.81-33.32-31.22a34.9,34.9,0,0,1,1.49-12.66c.11-.35-.24-1.3-1.36-.77-14.9,7.1-25.18,21.37-22.54,38.86a34.64,34.64,0,0,0,1,4.69,42.77,42.77,0,0,1,10.88,13.07,24.92,24.92,0,0,1,6.45-.88,24.5,24.5,0,0,1,21.53,12.82c14.34-2,24.27-12.87,29.46-26.32C204.23,88.53,202.8,88.2,202.43,88.41Z"/><path class="cls-2" d="M196.16,149.5A23.53,23.53,0,0,0,172.63,126l-.4,0a23.4,23.4,0,0,0-29-17.14,40.78,40.78,0,0,0-76.46,14.76,24.87,24.87,0,0,0-2.45,48.47,18.52,18.52,0,0,0,5.75.93h103a18.47,18.47,0,0,0,3.82-.4A23.53,23.53,0,0,0,196.16,149.5Z"/><path class="cls-1" d="M90.08,179.71l.92,2.07a2.58,2.58,0,0,0,2.64,1.53l2.25-.25a2.58,2.58,0,0,1,2.37,4.09L96.92,189a2.58,2.58,0,0,0,0,3.06l1.34,1.83A2.58,2.58,0,0,1,95.89,198l-2.25-.25A2.58,2.58,0,0,0,91,199.24l-.92,2.08a2.59,2.59,0,0,1-4.73,0l-.91-2.08a2.59,2.59,0,0,0-2.64-1.53l-2.26.25a2.58,2.58,0,0,1-2.36-4.09L78.52,192a2.61,2.61,0,0,0,0-3.06l-1.34-1.83a2.58,2.58,0,0,1,2.36-4.09l2.26.25a2.59,2.59,0,0,0,2.64-1.53l.91-2.07A2.58,2.58,0,0,1,90.08,179.71Z"/><path class="cls-1" d="M119.7,179.71l.91,2.07a2.6,2.6,0,0,0,2.64,1.53l2.26-.25a2.58,2.58,0,0,1,2.36,4.09L126.53,189a2.61,2.61,0,0,0,0,3.06l1.34,1.83a2.58,2.58,0,0,1-2.36,4.09l-2.26-.25a2.6,2.6,0,0,0-2.64,1.53l-.91,2.08a2.59,2.59,0,0,1-4.73,0l-.92-2.08a2.58,2.58,0,0,0-2.64-1.53l-2.25.25a2.58,2.58,0,0,1-2.37-4.09l1.34-1.83a2.58,2.58,0,0,0,0-3.06l-1.34-1.83a2.58,2.58,0,0,1,2.37-4.09l2.25.25a2.58,2.58,0,0,0,2.64-1.53l.92-2.07A2.58,2.58,0,0,1,119.7,179.71Z"/><path class="cls-1" d="M149.31,179.71l.92,2.07a2.58,2.58,0,0,0,2.64,1.53l2.25-.25a2.58,2.58,0,0,1,2.37,4.09L156.15,189a2.58,2.58,0,0,0,0,3.06l1.34,1.83a2.58,2.58,0,0,1-2.37,4.09l-2.25-.25a2.58,2.58,0,0,0-2.64,1.53l-.92,2.08a2.59,2.59,0,0,1-4.73,0l-.91-2.08a2.58,2.58,0,0,0-2.64-1.53l-2.26.25a2.58,2.58,0,0,1-2.36-4.09l1.34-1.83a2.61,2.61,0,0,0,0-3.06l-1.34-1.83a2.58,2.58,0,0,1,2.36-4.09l2.26.25a2.58,2.58,0,0,0,2.64-1.53l.91-2.07A2.58,2.58,0,0,1,149.31,179.71Z"/></svg>