<svg id="Layer_1" data-name="Layer 1" xmlns="http://www.w3.org/2000/svg" viewBox="0 0 250 250"><defs><style>.cls-1{fill:#f7f7f7;}.cls-2{fill:#00d5ff;}</style></defs><path class="cls-1" d="M200,129.39a23.52,23.52,0,0,0-23.52-23.52l-.41,0a23.51,23.51,0,0,0-22.84-18,23.27,23.27,0,0,0-6.17.85,40.78,40.78,0,0,0-76.47,14.76A24.87,24.87,0,0,0,68.18,152a18.12,18.12,0,0,0,5.74.93H177a18.38,18.38,0,0,0,3.81-.4A23.52,23.52,0,0,0,200,129.39Z"/><path class="cls-2" d="M93.59,159.6l.91,2.07a2.6,2.6,0,0,0,2.65,1.53L99.4,163a2.59,2.59,0,0,1,2.37,4.1l-1.34,1.83a2.57,2.57,0,0,0,0,3.05l1.34,1.83a2.58,2.58,0,0,1-2.37,4.09l-2.25-.24a2.59,2.59,0,0,0-2.65,1.52l-.91,2.08a2.59,2.59,0,0,1-4.73,0L88,179.13a2.59,2.59,0,0,0-2.65-1.52l-2.25.24a2.58,2.58,0,0,1-2.36-4.09L82,171.93a2.6,2.6,0,0,0,0-3.05l-1.34-1.83a2.59,2.59,0,0,1,2.36-4.1l2.25.25A2.6,2.6,0,0,0,88,161.67l.91-2.07A2.58,2.58,0,0,1,93.59,159.6Z"/><path class="cls-2" d="M123.21,159.6l.91,2.07a2.58,2.58,0,0,0,2.64,1.53L129,163a2.59,2.59,0,0,1,2.36,4.1L130,168.88a2.6,2.6,0,0,0,0,3.05l1.34,1.83a2.58,2.58,0,0,1-2.36,4.09l-2.26-.24a2.57,2.57,0,0,0-2.64,1.52l-.91,2.08a2.59,2.59,0,0,1-4.73,0l-.92-2.08a2.57,2.57,0,0,0-2.64-1.52l-2.25.24a2.58,2.58,0,0,1-2.37-4.09l1.34-1.83a2.57,2.57,0,0,0,0-3.05l-1.34-1.83a2.59,2.59,0,0,1,2.37-4.1l2.25.25a2.58,2.58,0,0,0,2.64-1.53l.92-2.07A2.58,2.58,0,0,1,123.21,159.6Z"/><path class="cls-2" d="M152.82,159.6l.92,2.07a2.58,2.58,0,0,0,2.64,1.53l2.25-.25a2.59,2.59,0,0,1,2.37,4.1l-1.34,1.83a2.57,2.57,0,0,0,0,3.05l1.34,1.83a2.58,2.58,0,0,1-2.37,4.09l-2.25-.24a2.57,2.57,0,0,0-2.64,1.52l-.92,2.08a2.59,2.59,0,0,1-4.73,0l-.91-2.08a2.58,2.58,0,0,0-2.64-1.52l-2.26.24a2.58,2.58,0,0,1-2.36-4.09l1.34-1.83a2.6,2.6,0,0,0,0-3.05l-1.34-1.83a2.59,2.59,0,0,1,2.36-4.1l2.26.25a2.59,2.59,0,0,0,2.64-1.53l.91-2.07A2.58,2.58,0,0,1,152.82,159.6Z"/></svg>