<svg id="Layer_1" data-name="Layer 1" xmlns="http://www.w3.org/2000/svg" viewBox="0 0 250 250"><defs><style>.cls-1{fill:#f7f7f7;}.cls-2{fill:#fc0;}.cls-3{fill:#00d5ff;}</style></defs><path class="cls-1" d="M194.8,149.38a23.53,23.53,0,0,0-23.53-23.52l-.41,0a23.39,23.39,0,0,0-29-17.14A40.78,40.78,0,0,0,65.39,123.5,24.87,24.87,0,0,0,62.94,172a18.22,18.22,0,0,0,5.74.94h103a18.38,18.38,0,0,0,3.81-.41A23.52,23.52,0,0,0,194.8,149.38Z"/><rect class="cls-2" x="187.18" y="113.11" width="18.25" height="10.7" rx="5.35" transform="translate(43.72 -52.68) rotate(17.17)"/><rect class="cls-2" x="186.67" y="83.66" width="18.25" height="10.7" rx="5.35" transform="translate(-18.44 70.01) rotate(-19.38)"/><rect class="cls-2" x="170.14" y="60.08" width="18.25" height="10.7" rx="5.35" transform="translate(23.14 175.16) rotate(-55.15)"/><rect class="cls-2" x="114.08" y="60.21" width="18.25" height="10.7" rx="5.35" transform="translate(139.8 204.13) rotate(-124.85)"/><rect class="cls-2" x="142.18" y="51.19" width="18.25" height="10.7" rx="5.35" transform="translate(94.77 207.85) rotate(-90)"/><path class="cls-2" d="M144.45,104.45a24,24,0,0,1,29.8,17.6l.42,0h.17A29.63,29.63,0,1,0,127,87.14,42.12,42.12,0,0,1,144.45,104.45Z"/><path class="cls-3" d="M89.44,179.44l.92,2.07A2.58,2.58,0,0,0,93,183l2.25-.25a2.59,2.59,0,0,1,2.37,4.1l-1.34,1.82a2.58,2.58,0,0,0,0,3.06l1.34,1.83a2.58,2.58,0,0,1-2.37,4.09L93,197.45A2.56,2.56,0,0,0,90.36,199l-.92,2.08a2.59,2.59,0,0,1-4.73,0L83.8,199a2.56,2.56,0,0,0-2.64-1.52l-2.26.24a2.58,2.58,0,0,1-2.36-4.09l1.34-1.83a2.61,2.61,0,0,0,0-3.06l-1.34-1.82a2.58,2.58,0,0,1,2.36-4.1l2.26.25a2.58,2.58,0,0,0,2.64-1.53l.91-2.07A2.58,2.58,0,0,1,89.44,179.44Z"/><path class="cls-3" d="M119.06,179.44l.91,2.07a2.6,2.6,0,0,0,2.65,1.53l2.25-.25a2.58,2.58,0,0,1,2.36,4.1l-1.34,1.82a2.61,2.61,0,0,0,0,3.06l1.34,1.83a2.58,2.58,0,0,1-2.36,4.09l-2.25-.24A2.58,2.58,0,0,0,120,199l-.91,2.08a2.59,2.59,0,0,1-4.73,0l-.91-2.08a2.58,2.58,0,0,0-2.65-1.52l-2.25.24a2.59,2.59,0,0,1-2.37-4.09l1.34-1.83a2.58,2.58,0,0,0,0-3.06l-1.34-1.82a2.59,2.59,0,0,1,2.37-4.1l2.25.25a2.6,2.6,0,0,0,2.65-1.53l.91-2.07A2.58,2.58,0,0,1,119.06,179.44Z"/><path class="cls-3" d="M148.67,179.44l.92,2.07a2.58,2.58,0,0,0,2.64,1.53l2.26-.25a2.58,2.58,0,0,1,2.36,4.1l-1.34,1.82a2.58,2.58,0,0,0,0,3.06l1.34,1.83a2.58,2.58,0,0,1-2.36,4.09l-2.26-.24a2.56,2.56,0,0,0-2.64,1.52l-.92,2.08a2.58,2.58,0,0,1-4.72,0L143,199a2.56,2.56,0,0,0-2.64-1.52l-2.26.24a2.58,2.58,0,0,1-2.36-4.09l1.34-1.83a2.61,2.61,0,0,0,0-3.06l-1.34-1.82a2.58,2.58,0,0,1,2.36-4.1l2.26.25a2.58,2.58,0,0,0,2.64-1.53l.92-2.07A2.57,2.57,0,0,1,148.67,179.44Z"/></svg>