<svg id="Layer_1" data-name="Layer 1" xmlns="http://www.w3.org/2000/svg" viewBox="0 0 250 250"><defs><style>.cls-1{fill:#00d5ff;}.cls-2{fill:#f7f7f7;}</style></defs><path class="cls-1" d="M201.07,88.18a26.23,26.23,0,0,1-12.22,3.54C171.23,93,156.5,75.91,155.52,60.5A35.35,35.35,0,0,1,157,47.84c.11-.35-.23-1.3-1.35-.76-14.9,7.09-25.18,21.36-22.54,38.85a35.12,35.12,0,0,0,1,4.7A42.73,42.73,0,0,1,145,103.69a24.9,24.9,0,0,1,6.44-.88A24.48,24.48,0,0,1,173,115.63c14.35-2,24.28-12.87,29.47-26.32C202.86,88.3,201.44,88,201.07,88.18Z"/><path class="cls-2" d="M194.8,149.27a23.53,23.53,0,0,0-23.53-23.52l-.41,0a23.51,23.51,0,0,0-22.84-18,23.27,23.27,0,0,0-6.17.85,40.78,40.78,0,0,0-76.46,14.76,24.87,24.87,0,0,0-2.45,48.47,18.22,18.22,0,0,0,5.74.93h103a18.38,18.38,0,0,0,3.81-.4A23.52,23.52,0,0,0,194.8,149.27Z"/><path class="cls-1" d="M88.72,179.48l.91,2.07a2.6,2.6,0,0,0,2.65,1.53l2.25-.25a2.58,2.58,0,0,1,2.36,4.1l-1.33,1.83a2.57,2.57,0,0,0,0,3.05l1.33,1.83a2.58,2.58,0,0,1-2.36,4.09l-2.25-.24A2.58,2.58,0,0,0,89.63,199l-.91,2.08a2.59,2.59,0,0,1-4.73,0L83.08,199a2.58,2.58,0,0,0-2.65-1.52l-2.25.24a2.58,2.58,0,0,1-2.36-4.09l1.34-1.83a2.6,2.6,0,0,0,0-3.05l-1.34-1.83a2.58,2.58,0,0,1,2.36-4.1l2.25.25a2.6,2.6,0,0,0,2.65-1.53l.91-2.07A2.58,2.58,0,0,1,88.72,179.48Z"/><path class="cls-1" d="M118.33,179.48l.92,2.07a2.58,2.58,0,0,0,2.64,1.53l2.26-.25a2.58,2.58,0,0,1,2.36,4.1l-1.34,1.83a2.6,2.6,0,0,0,0,3.05l1.34,1.83a2.58,2.58,0,0,1-2.36,4.09l-2.26-.24a2.56,2.56,0,0,0-2.64,1.52l-.92,2.08a2.58,2.58,0,0,1-4.72,0l-.92-2.08a2.56,2.56,0,0,0-2.64-1.52l-2.25.24a2.58,2.58,0,0,1-2.37-4.09l1.34-1.83a2.57,2.57,0,0,0,0-3.05l-1.34-1.83a2.59,2.59,0,0,1,2.37-4.1l2.25.25a2.58,2.58,0,0,0,2.64-1.53l.92-2.07A2.57,2.57,0,0,1,118.33,179.48Z"/><path class="cls-1" d="M148,179.48l.91,2.07a2.6,2.6,0,0,0,2.65,1.53l2.25-.25a2.59,2.59,0,0,1,2.37,4.1l-1.34,1.83a2.57,2.57,0,0,0,0,3.05l1.34,1.83a2.59,2.59,0,0,1-2.37,4.09l-2.25-.24a2.58,2.58,0,0,0-2.65,1.52l-.91,2.08a2.59,2.59,0,0,1-4.73,0l-.91-2.08a2.58,2.58,0,0,0-2.65-1.52l-2.25.24a2.58,2.58,0,0,1-2.36-4.09l1.34-1.83a2.6,2.6,0,0,0,0-3.05l-1.34-1.83a2.58,2.58,0,0,1,2.36-4.1l2.25.25a2.6,2.6,0,0,0,2.65-1.53l.91-2.07A2.58,2.58,0,0,1,148,179.48Z"/><path class="cls-1" d="M74.54,203.27l.92,2.07a2.58,2.58,0,0,0,2.64,1.53l2.26-.24a2.58,2.58,0,0,1,2.36,4.09l-1.34,1.83a2.6,2.6,0,0,0,0,3l1.34,1.83a2.58,2.58,0,0,1-2.36,4.09l-2.26-.24a2.57,2.57,0,0,0-2.64,1.53l-.92,2.07a2.58,2.58,0,0,1-4.72,0l-.92-2.07a2.57,2.57,0,0,0-2.64-1.53l-2.26.24a2.58,2.58,0,0,1-2.36-4.09L63,215.6a2.57,2.57,0,0,0,0-3l-1.34-1.83A2.58,2.58,0,0,1,64,206.63l2.26.24a2.58,2.58,0,0,0,2.64-1.53l.92-2.07A2.57,2.57,0,0,1,74.54,203.27Z"/><path class="cls-1" d="M104.16,203.27l.91,2.07a2.6,2.6,0,0,0,2.65,1.53l2.25-.24a2.58,2.58,0,0,1,2.37,4.09L111,212.55a2.57,2.57,0,0,0,0,3l1.34,1.83a2.58,2.58,0,0,1-2.37,4.09l-2.25-.24a2.59,2.59,0,0,0-2.65,1.53l-.91,2.07a2.59,2.59,0,0,1-4.73,0l-.91-2.07a2.59,2.59,0,0,0-2.65-1.53l-2.25.24a2.58,2.58,0,0,1-2.36-4.09l1.34-1.83a2.6,2.6,0,0,0,0-3l-1.34-1.83a2.58,2.58,0,0,1,2.36-4.09l2.25.24a2.6,2.6,0,0,0,2.65-1.53l.91-2.07A2.58,2.58,0,0,1,104.16,203.27Z"/><path class="cls-1" d="M133.78,203.27l.91,2.07a2.58,2.58,0,0,0,2.64,1.53l2.26-.24a2.58,2.58,0,0,1,2.36,4.09l-1.34,1.83a2.6,2.6,0,0,0,0,3l1.34,1.83a2.58,2.58,0,0,1-2.36,4.09l-2.26-.24a2.57,2.57,0,0,0-2.64,1.53l-.91,2.07a2.59,2.59,0,0,1-4.73,0l-.92-2.07a2.57,2.57,0,0,0-2.64-1.53l-2.25.24a2.58,2.58,0,0,1-2.37-4.09l1.34-1.83a2.57,2.57,0,0,0,0-3l-1.34-1.83a2.58,2.58,0,0,1,2.37-4.09l2.25.24a2.58,2.58,0,0,0,2.64-1.53l.92-2.07A2.58,2.58,0,0,1,133.78,203.27Z"/></svg>