<svg id="Layer_1" data-name="Layer 1" xmlns="http://www.w3.org/2000/svg" viewBox="0 0 250 250"><defs><style>.cls-1{fill:#f7f7f7;}.cls-2{fill:#fc0;}.cls-3{fill:#00d5ff;}</style></defs><path class="cls-1" d="M194.8,137.49A23.53,23.53,0,0,0,171.27,114l-.41,0a23.44,23.44,0,0,0-29-17.14,40.78,40.78,0,0,0-76.46,14.77,24.86,24.86,0,0,0-2.45,48.46,18.22,18.22,0,0,0,5.74.94h103a18.38,18.38,0,0,0,3.81-.4A23.52,23.52,0,0,0,194.8,137.49Z"/><rect class="cls-2" x="187.18" y="101.21" width="18.25" height="10.7" rx="5.35" transform="translate(40.21 -53.21) rotate(17.17)"/><rect class="cls-2" x="186.67" y="71.76" width="18.25" height="10.7" rx="5.35" transform="translate(-14.49 69.33) rotate(-19.38)"/><rect class="cls-2" x="170.14" y="48.18" width="18.25" height="10.7" rx="5.35" transform="translate(32.91 170.06) rotate(-55.15)"/><rect class="cls-2" x="114.08" y="48.32" width="18.25" height="10.7" rx="5.35" transform="translate(149.56 185.44) rotate(-124.85)"/><rect class="cls-2" x="142.18" y="39.29" width="18.25" height="10.7" rx="5.35" transform="translate(106.67 195.95) rotate(-90)"/><path class="cls-2" d="M144.45,92.55a24,24,0,0,1,29.8,17.61l.42,0h.17A29.63,29.63,0,1,0,127,75.25,42,42,0,0,1,144.45,92.55Z"/><path class="cls-3" d="M89.44,167.54l.92,2.07A2.58,2.58,0,0,0,93,171.14l2.25-.25a2.59,2.59,0,0,1,2.37,4.1l-1.34,1.83a2.57,2.57,0,0,0,0,3.05l1.34,1.83a2.58,2.58,0,0,1-2.37,4.09L93,185.55a2.57,2.57,0,0,0-2.64,1.52l-.92,2.08a2.59,2.59,0,0,1-4.73,0l-.91-2.08a2.57,2.57,0,0,0-2.64-1.52l-2.26.24a2.58,2.58,0,0,1-2.36-4.09l1.34-1.83a2.6,2.6,0,0,0,0-3.05L76.54,175a2.59,2.59,0,0,1,2.36-4.1l2.26.25a2.58,2.58,0,0,0,2.64-1.53l.91-2.07A2.58,2.58,0,0,1,89.44,167.54Z"/><path class="cls-3" d="M119.06,167.54l.91,2.07a2.6,2.6,0,0,0,2.65,1.53l2.25-.25a2.59,2.59,0,0,1,2.36,4.1l-1.34,1.83a2.6,2.6,0,0,0,0,3.05l1.34,1.83a2.58,2.58,0,0,1-2.36,4.09l-2.25-.24a2.59,2.59,0,0,0-2.65,1.52l-.91,2.08a2.59,2.59,0,0,1-4.73,0l-.91-2.08a2.59,2.59,0,0,0-2.65-1.52l-2.25.24a2.58,2.58,0,0,1-2.37-4.09l1.34-1.83a2.57,2.57,0,0,0,0-3.05L106.15,175a2.59,2.59,0,0,1,2.37-4.1l2.25.25a2.6,2.6,0,0,0,2.65-1.53l.91-2.07A2.58,2.58,0,0,1,119.06,167.54Z"/><path class="cls-3" d="M148.67,167.54l.92,2.07a2.58,2.58,0,0,0,2.64,1.53l2.26-.25a2.59,2.59,0,0,1,2.36,4.1l-1.34,1.83a2.57,2.57,0,0,0,0,3.05l1.34,1.83a2.58,2.58,0,0,1-2.36,4.09l-2.26-.24a2.57,2.57,0,0,0-2.64,1.52l-.92,2.08a2.58,2.58,0,0,1-4.72,0l-.92-2.08a2.57,2.57,0,0,0-2.64-1.52l-2.26.24a2.58,2.58,0,0,1-2.36-4.09l1.34-1.83a2.6,2.6,0,0,0,0-3.05L135.77,175a2.59,2.59,0,0,1,2.36-4.1l2.26.25a2.58,2.58,0,0,0,2.64-1.53l.92-2.07A2.57,2.57,0,0,1,148.67,167.54Z"/><path class="cls-3" d="M75.27,191.33l.91,2.08a2.58,2.58,0,0,0,2.64,1.52l2.26-.24a2.58,2.58,0,0,1,2.36,4.09l-1.34,1.83a2.6,2.6,0,0,0,0,3l1.34,1.83a2.58,2.58,0,0,1-2.36,4.1l-2.26-.25a2.6,2.6,0,0,0-2.64,1.53l-.91,2.07a2.58,2.58,0,0,1-4.73,0l-.92-2.07A2.58,2.58,0,0,0,67,209.34l-2.25.25a2.59,2.59,0,0,1-2.37-4.1l1.34-1.83a2.57,2.57,0,0,0,0-3l-1.34-1.83a2.59,2.59,0,0,1,2.37-4.09l2.25.24a2.56,2.56,0,0,0,2.64-1.52l.92-2.08A2.59,2.59,0,0,1,75.27,191.33Z"/><path class="cls-3" d="M104.88,191.33l.92,2.08a2.56,2.56,0,0,0,2.64,1.52l2.25-.24a2.58,2.58,0,0,1,2.37,4.09l-1.34,1.83a2.57,2.57,0,0,0,0,3l1.34,1.83a2.59,2.59,0,0,1-2.37,4.1l-2.25-.25a2.58,2.58,0,0,0-2.64,1.53l-.92,2.07a2.57,2.57,0,0,1-4.72,0l-.92-2.07a2.58,2.58,0,0,0-2.64-1.53l-2.26.25a2.58,2.58,0,0,1-2.36-4.1l1.34-1.83a2.6,2.6,0,0,0,0-3L92,198.78a2.58,2.58,0,0,1,2.36-4.09l2.26.24a2.56,2.56,0,0,0,2.64-1.52l.92-2.08A2.58,2.58,0,0,1,104.88,191.33Z"/><path class="cls-3" d="M134.5,191.33l.91,2.08a2.58,2.58,0,0,0,2.65,1.52l2.25-.24a2.58,2.58,0,0,1,2.36,4.09l-1.34,1.83a2.6,2.6,0,0,0,0,3l1.34,1.83a2.58,2.58,0,0,1-2.36,4.1l-2.25-.25a2.6,2.6,0,0,0-2.65,1.53l-.91,2.07a2.58,2.58,0,0,1-4.73,0l-.91-2.07a2.6,2.6,0,0,0-2.65-1.53l-2.25.25a2.58,2.58,0,0,1-2.36-4.1l1.33-1.83a2.57,2.57,0,0,0,0-3l-1.33-1.83a2.58,2.58,0,0,1,2.36-4.09l2.25.24a2.58,2.58,0,0,0,2.65-1.52l.91-2.08A2.59,2.59,0,0,1,134.5,191.33Z"/></svg>