<svg id="Layer_1" data-name="Layer 1" xmlns="http://www.w3.org/2000/svg" viewBox="0 0 250 250"><defs><style>.cls-1{fill:#f7f7f7;}.cls-2{fill:#00d5ff;}</style></defs><path class="cls-1" d="M200,117.49A23.52,23.52,0,0,0,176.51,94l-.41,0a23.44,23.44,0,0,0-29-17.14A40.78,40.78,0,0,0,70.62,91.61a24.87,24.87,0,0,0-2.44,48.47,18.13,18.13,0,0,0,5.74.94H177a18.38,18.38,0,0,0,3.81-.41A23.51,23.51,0,0,0,200,117.49Z"/><path class="cls-2" d="M93.59,147.7l.91,2.08a2.59,2.59,0,0,0,2.65,1.52l2.25-.24a2.58,2.58,0,0,1,2.37,4.09L100.43,157a2.57,2.57,0,0,0,0,3.05l1.34,1.83A2.59,2.59,0,0,1,99.4,166l-2.25-.25a2.6,2.6,0,0,0-2.65,1.53l-.91,2.07a2.58,2.58,0,0,1-4.73,0L88,167.24a2.6,2.6,0,0,0-2.65-1.53l-2.25.25a2.59,2.59,0,0,1-2.36-4.1L82,160A2.6,2.6,0,0,0,82,157l-1.34-1.83a2.58,2.58,0,0,1,2.36-4.09l2.25.24A2.59,2.59,0,0,0,88,149.78l.91-2.08A2.59,2.59,0,0,1,93.59,147.7Z"/><path class="cls-2" d="M123.21,147.7l.91,2.08a2.57,2.57,0,0,0,2.64,1.52l2.26-.24a2.58,2.58,0,0,1,2.36,4.09L130,157a2.6,2.6,0,0,0,0,3.05l1.34,1.83A2.59,2.59,0,0,1,129,166l-2.26-.25a2.58,2.58,0,0,0-2.64,1.53l-.91,2.07a2.58,2.58,0,0,1-4.73,0l-.92-2.07a2.58,2.58,0,0,0-2.64-1.53l-2.25.25a2.59,2.59,0,0,1-2.37-4.1l1.34-1.83a2.57,2.57,0,0,0,0-3.05l-1.34-1.83a2.58,2.58,0,0,1,2.37-4.09l2.25.24a2.57,2.57,0,0,0,2.64-1.52l.92-2.08A2.59,2.59,0,0,1,123.21,147.7Z"/><path class="cls-2" d="M152.82,147.7l.92,2.08a2.57,2.57,0,0,0,2.64,1.52l2.25-.24a2.58,2.58,0,0,1,2.37,4.09L159.66,157a2.57,2.57,0,0,0,0,3.05l1.34,1.83a2.59,2.59,0,0,1-2.37,4.1l-2.25-.25a2.58,2.58,0,0,0-2.64,1.53l-.92,2.07a2.58,2.58,0,0,1-4.73,0l-.91-2.07a2.59,2.59,0,0,0-2.64-1.53l-2.26.25a2.59,2.59,0,0,1-2.36-4.1l1.34-1.83a2.6,2.6,0,0,0,0-3.05l-1.34-1.83a2.58,2.58,0,0,1,2.36-4.09l2.26.24a2.58,2.58,0,0,0,2.64-1.52l.91-2.08A2.59,2.59,0,0,1,152.82,147.7Z"/><path class="cls-2" d="M79.41,171.5l.92,2.07A2.58,2.58,0,0,0,83,175.1l2.26-.25a2.58,2.58,0,0,1,2.36,4.09l-1.34,1.83a2.61,2.61,0,0,0,0,3.06l1.34,1.83a2.58,2.58,0,0,1-2.36,4.09L83,189.5A2.58,2.58,0,0,0,80.33,191l-.92,2.08a2.58,2.58,0,0,1-4.72,0L73.77,191a2.58,2.58,0,0,0-2.64-1.53l-2.25.25a2.58,2.58,0,0,1-2.37-4.09l1.34-1.83a2.58,2.58,0,0,0,0-3.06l-1.34-1.83a2.58,2.58,0,0,1,2.37-4.09l2.25.25a2.58,2.58,0,0,0,2.64-1.53l.92-2.07A2.57,2.57,0,0,1,79.41,171.5Z"/><path class="cls-2" d="M109,171.5l.92,2.07a2.58,2.58,0,0,0,2.64,1.53l2.25-.25a2.59,2.59,0,0,1,2.37,4.09l-1.34,1.83a2.58,2.58,0,0,0,0,3.06l1.34,1.83a2.59,2.59,0,0,1-2.37,4.09l-2.25-.25A2.58,2.58,0,0,0,110,191l-.92,2.08a2.59,2.59,0,0,1-4.73,0l-.91-2.08a2.6,2.6,0,0,0-2.64-1.53l-2.26.25a2.58,2.58,0,0,1-2.36-4.09l1.34-1.83a2.61,2.61,0,0,0,0-3.06l-1.34-1.83a2.58,2.58,0,0,1,2.36-4.09l2.26.25a2.6,2.6,0,0,0,2.64-1.53l.91-2.07A2.58,2.58,0,0,1,109,171.5Z"/><path class="cls-2" d="M138.65,171.5l.91,2.07a2.59,2.59,0,0,0,2.64,1.53l2.26-.25a2.58,2.58,0,0,1,2.36,4.09l-1.34,1.83a2.61,2.61,0,0,0,0,3.06l1.34,1.83a2.58,2.58,0,0,1-2.36,4.09l-2.26-.25a2.59,2.59,0,0,0-2.64,1.53l-.91,2.08a2.59,2.59,0,0,1-4.73,0L133,191a2.58,2.58,0,0,0-2.64-1.53l-2.25.25a2.58,2.58,0,0,1-2.37-4.09l1.34-1.83a2.58,2.58,0,0,0,0-3.06l-1.34-1.83a2.58,2.58,0,0,1,2.37-4.09l2.25.25a2.58,2.58,0,0,0,2.64-1.53l.92-2.07A2.58,2.58,0,0,1,138.65,171.5Z"/></svg>