<svg id="Layer_1" data-name="Layer 1" xmlns="http://www.w3.org/2000/svg" viewBox="0 0 250 250"><defs><style>.cls-1{fill:#f7f7f7;}.cls-2{fill:#00d5ff;}</style></defs><rect class="cls-1" x="63.12" y="99.63" width="82.42" height="12.14" rx="6.07"/><rect class="cls-2" x="46.63" y="80.53" width="127.37" height="12.14" rx="6.07"/><rect class="cls-2" x="150.18" y="100.24" width="17.43" height="12.14" rx="6.07"/><path class="cls-1" d="M178.39,100.24h19.37a5.61,5.61,0,0,1,5.61,5.61v.91a5.61,5.61,0,0,1-5.61,5.61H177.48a5.61,5.61,0,0,1-5.61-5.61v0a6.52,6.52,0,0,1,6.52-6.52Z"/><rect class="cls-1" x="63.12" y="137.78" width="82.42" height="12.14" rx="6.07"/><rect class="cls-2" x="46.63" y="118.68" width="127.37" height="12.14" rx="6.07"/><rect class="cls-1" x="46.63" y="157.34" width="127.37" height="12.14" rx="6.07"/><rect class="cls-2" x="150.18" y="138.39" width="17.43" height="12.14" rx="6.07"/><rect class="cls-1" x="171.87" y="138.39" width="31.51" height="12.14" rx="6.07"/></svg>