<svg id="Layer_1" data-name="Layer 1" xmlns="http://www.w3.org/2000/svg" viewBox="0 0 250 250"><defs><style>.cls-1{fill:#f7f7f7;}.cls-2{fill:#fc0;}</style></defs><rect class="cls-1" x="106.28" y="173.67" width="70.88" height="10.44" rx="4.62" transform="translate(283.43 357.78) rotate(-180)"/><rect class="cls-2" x="81.81" y="157.25" width="109.53" height="10.44" rx="4.62" transform="translate(273.15 324.93) rotate(180)"/><rect class="cls-1" x="81.81" y="190.49" width="109.53" height="10.44" rx="4.62" transform="translate(273.15 391.41) rotate(180)"/><rect class="cls-2" x="87.3" y="174.2" width="14.99" height="10.44" rx="4.62" transform="translate(189.6 358.83) rotate(-180)"/><rect class="cls-1" x="56.55" y="174.2" width="27.09" height="10.44" rx="4.62" transform="translate(140.19 358.83) rotate(-180)"/><circle class="cls-2" cx="128.93" cy="116.64" r="35.43"/><rect class="cls-2" x="171.71" y="127.64" width="21.83" height="12.79" rx="5.91" transform="matrix(0.96, 0.3, -0.3, 0.96, 47.71, -47.94)"/><rect class="cls-2" x="171.09" y="92.42" width="21.83" height="12.79" rx="5.91" transform="translate(-22.48 65.99) rotate(-19.38)"/><rect class="cls-2" x="151.33" y="64.22" width="21.83" height="12.79" rx="5.91" transform="translate(11.58 163.41) rotate(-55.15)"/><rect class="cls-2" x="84.28" y="64.39" width="21.83" height="12.79" rx="5.91" transform="translate(91.51 189.35) rotate(-124.85)"/><rect class="cls-2" x="117.9" y="53.6" width="21.83" height="12.79" rx="5.91" transform="translate(68.82 188.8) rotate(-90)"/><rect class="cls-2" x="65.01" y="95.95" width="21.83" height="12.79" rx="5.91" transform="translate(118.24 222.54) rotate(-162.83)"/><rect class="cls-2" x="65.62" y="131.16" width="21.83" height="12.79" rx="5.91" transform="translate(194.37 241.93) rotate(160.62)"/></svg>