<svg id="Layer_1" data-name="Layer 1" xmlns="http://www.w3.org/2000/svg" viewBox="0 0 250 250"><defs><style>.cls-1{fill:#f7f7f7;}.cls-2{fill:#00d5ff;}</style></defs><rect class="cls-1" x="107.33" y="163" width="70.88" height="10.44" rx="4.62" transform="translate(285.55 336.43) rotate(-180)"/><rect class="cls-2" x="82.86" y="146.57" width="109.53" height="10.44" rx="4.62" transform="translate(275.26 303.58) rotate(180)"/><rect class="cls-1" x="82.86" y="179.81" width="109.53" height="10.44" rx="4.62" transform="translate(275.26 370.06) rotate(180)"/><rect class="cls-2" x="88.36" y="163.52" width="14.99" height="10.44" rx="4.62" transform="translate(191.71 337.48) rotate(-180)"/><rect class="cls-1" x="57.6" y="163.52" width="27.09" height="10.44" rx="4.62" transform="translate(142.3 337.48) rotate(-180)"/><path class="cls-2" d="M98.85,140.48h64.53a64.58,64.58,0,0,0,14.85-23.2c.52-1.37-1.41-1.82-1.91-1.53-5.28,3.08-10.16,4.33-16.58,4.8-23.9,1.73-43.89-21.45-45.22-42.37a47.83,47.83,0,0,1,2-17.17c.15-.48-.31-1.77-1.84-1C94.49,69.6,80.54,89,84.12,112.69A47.73,47.73,0,0,0,98.85,140.48Z"/></svg>