<svg id="Layer_1" data-name="Layer 1" xmlns="http://www.w3.org/2000/svg" viewBox="0 0 250 250"><defs><style>.cls-1{fill:#f7f7f7;}.cls-2{fill:#00d5ff;}</style></defs><path class="cls-1" d="M180.33,130.29H139.26a5.72,5.72,0,0,1,0-11.44h41.07c8,0,16.62-4.53,16.62-14.48a16.62,16.62,0,1,0-33.23,0,5.73,5.73,0,0,1-11.45,0,28.06,28.06,0,1,1,56.12,0C208.39,119.39,196.59,130.29,180.33,130.29Z"/><path class="cls-1" d="M41.61,122.43a5.87,5.87,0,0,0,5.86,5.86h56.41c21.17,0,36.54-14.13,36.54-33.61a36.54,36.54,0,1,0-73.08,0,5.86,5.86,0,1,0,11.72,0,24.82,24.82,0,0,1,49.64,0,20.07,20.07,0,0,1-8.08,16.67,27.86,27.86,0,0,1-16.74,5.22H47.47A5.87,5.87,0,0,0,41.61,122.43Z"/><path class="cls-2" d="M135.22,191.86a29.93,29.93,0,0,1-29.9-29.9,5.72,5.72,0,1,1,11.44,0,18.46,18.46,0,1,0,36.91,0c0-11.09-9.56-16.15-18.45-16.15H47.33a5.72,5.72,0,1,1,0-11.44h87.89c17.32,0,29.9,11.6,29.9,27.59A29.93,29.93,0,0,1,135.22,191.86Z"/></svg>