<svg id="Layer_1" data-name="Layer 1" xmlns="http://www.w3.org/2000/svg" viewBox="0 0 250 250"><defs><style>.cls-1{fill:#00d5ff;}.cls-2{fill:#f7f7f7;}</style></defs><path class="cls-1" d="M202.32,103.33a26.35,26.35,0,0,1-12.22,3.54c-17.62,1.27-32.35-15.81-33.33-31.23A35.1,35.1,0,0,1,158.26,63c.11-.35-.23-1.3-1.36-.77-14.89,7.1-25.17,21.37-22.54,38.85a36,36,0,0,0,1,4.7,42.66,42.66,0,0,1,10.88,13.07,24.41,24.41,0,0,1,28,11.93c14.35-2,24.28-12.87,29.46-26.31C204.11,103.45,202.69,103.11,202.32,103.33Z"/><path class="cls-2" d="M196.27,164.42a23.52,23.52,0,0,0-23.52-23.53l-.41,0a23.44,23.44,0,0,0-29-17.14,40.78,40.78,0,0,0-76.47,14.76A24.87,24.87,0,0,0,64.42,187a18.13,18.13,0,0,0,5.74.94h103a17.72,17.72,0,0,0,3.81-.41A23.51,23.51,0,0,0,196.27,164.42Z"/></svg>