<svg id="Layer_1" data-name="Layer 1" xmlns="http://www.w3.org/2000/svg" viewBox="0 0 250 250"><defs><style>.cls-1{fill:#f7f7f7;}.cls-2{fill:#fc0;}</style></defs><path class="cls-1" d="M194.8,164.22a23.53,23.53,0,0,0-23.53-23.52l-.41,0a23.39,23.39,0,0,0-29-17.14,40.78,40.78,0,0,0-76.46,14.76,24.87,24.87,0,0,0-2.45,48.47,18.22,18.22,0,0,0,5.74.94h103a18.38,18.38,0,0,0,3.81-.41A23.52,23.52,0,0,0,194.8,164.22Z"/><rect class="cls-2" x="187.18" y="127.95" width="18.25" height="10.7" rx="5.35" transform="translate(48.1 -52.02) rotate(17.17)"/><rect class="cls-2" x="186.67" y="98.5" width="18.25" height="10.7" rx="5.35" transform="translate(-23.36 70.85) rotate(-19.38)"/><rect class="cls-2" x="170.14" y="74.92" width="18.25" height="10.7" rx="5.35" transform="translate(10.96 181.52) rotate(-55.15)"/><rect class="cls-2" x="114.08" y="75.05" width="18.25" height="10.7" rx="5.35" transform="translate(127.62 227.45) rotate(-124.85)"/><rect class="cls-2" x="142.18" y="66.03" width="18.25" height="10.7" rx="5.35" transform="translate(79.93 222.69) rotate(-90)"/><path class="cls-2" d="M144.45,119.29a24,24,0,0,1,29.8,17.6l.42,0h.17A29.63,29.63,0,1,0,127,102,42.12,42.12,0,0,1,144.45,119.29Z"/></svg>