<svg id="Layer_1" data-name="Layer 1" xmlns="http://www.w3.org/2000/svg" viewBox="0 0 250 250"><defs><style>.cls-1{fill:#f7f7f7;}.cls-2{fill:#efefef;}.cls-3{fill:#00d5ff;}</style></defs><path class="cls-1" d="M212.56,164A23.53,23.53,0,0,0,189,140.5l-.41,0a23.44,23.44,0,0,0-29-17.14,40.79,40.79,0,0,0-76.47,14.77,24.86,24.86,0,0,0-2.44,48.46,18.17,18.17,0,0,0,5.74.94h103a18.38,18.38,0,0,0,3.81-.4A23.53,23.53,0,0,0,212.56,164Z"/><path class="cls-2" d="M57.07,162.39a26.75,26.75,0,0,1,21.7-26.57,44.55,44.55,0,0,1,16.8-30.42,40.28,40.28,0,0,0-7.66-.75c-20,0-36.42,14.85-38.56,33.93A23.19,23.19,0,0,0,47,183.94a17.59,17.59,0,0,0,5.46.87H68.7A27.15,27.15,0,0,1,57.07,162.39Z"/><path class="cls-3" d="M218.84,103.72a26.35,26.35,0,0,1-12.23,3.54C189,108.53,174.27,91.45,173.29,76a35.07,35.07,0,0,1,1.49-12.65c.11-.36-.23-1.31-1.36-.77-14.89,7.1-25.18,21.36-22.54,38.85a34.47,34.47,0,0,0,1.05,4.7,42.8,42.8,0,0,1,10.88,13.07,24.41,24.41,0,0,1,28,11.93c14.35-2,24.27-12.87,29.46-26.32C220.63,103.84,219.2,103.5,218.84,103.72Z"/></svg>