<svg id="Layer_1" data-name="Layer 1" xmlns="http://www.w3.org/2000/svg" viewBox="0 0 250 250"><defs><style>.cls-1{fill:#f7f7f7;}.cls-2{fill:#efefef;}.cls-3{fill:#fc0;}</style></defs><path class="cls-1" d="M211.62,164.22A23.52,23.52,0,0,0,188.1,140.7l-.41,0a23.39,23.39,0,0,0-29-17.14,40.78,40.78,0,0,0-76.47,14.76,24.87,24.87,0,0,0-2.44,48.47,18.17,18.17,0,0,0,5.74.94h103a18.38,18.38,0,0,0,3.81-.41A23.52,23.52,0,0,0,211.62,164.22Z"/><path class="cls-2" d="M56.13,162.59c0-13.34,9.38-24.39,21.7-26.57a44.55,44.55,0,0,1,16.8-30.42,39.48,39.48,0,0,0-7.66-.75c-20,0-36.42,14.84-38.56,33.93a23.19,23.19,0,0,0-2.33,45.35,17.59,17.59,0,0,0,5.46.88H67.76A27.15,27.15,0,0,1,56.13,162.59Z"/><rect class="cls-3" x="203.16" y="127.95" width="18.25" height="10.7" rx="5.35" transform="translate(48.82 -56.73) rotate(17.17)"/><rect class="cls-3" x="202.65" y="98.5" width="18.25" height="10.7" rx="5.35" transform="translate(-22.46 76.15) rotate(-19.38)"/><rect class="cls-3" x="186.12" y="74.92" width="18.25" height="10.7" rx="5.35" transform="translate(17.81 194.64) rotate(-55.15)"/><rect class="cls-3" x="130.06" y="75.05" width="18.25" height="10.7" rx="5.35" transform="translate(152.73 240.57) rotate(-124.85)"/><rect class="cls-3" x="158.17" y="66.03" width="18.25" height="10.7" rx="5.35" transform="translate(95.91 238.67) rotate(-90)"/><path class="cls-3" d="M160.43,119.29a24,24,0,0,1,29.8,17.6l.42,0h.17A29.63,29.63,0,1,0,143,102,42.12,42.12,0,0,1,160.43,119.29Z"/></svg>