<svg id="Layer_1" data-name="Layer 1" xmlns="http://www.w3.org/2000/svg" viewBox="0 0 250 250"><defs><style>.cls-1{fill:#f7f7f7;}.cls-2{fill:#efefef;}</style></defs><path class="cls-1" d="M216.44,144.31a23.53,23.53,0,0,0-23.53-23.52l-.41,0a23.51,23.51,0,0,0-22.84-18,23.27,23.27,0,0,0-6.17.85A40.78,40.78,0,0,0,87,118.43a24.87,24.87,0,0,0-2.45,48.47,18.22,18.22,0,0,0,5.74.93h103a18.38,18.38,0,0,0,3.81-.4A23.52,23.52,0,0,0,216.44,144.31Z"/><path class="cls-2" d="M61,142.68c0-13.34,9.38-24.39,21.69-26.58a44.5,44.5,0,0,1,16.8-30.41,39.48,39.48,0,0,0-7.66-.76c-20,0-36.42,14.85-38.56,33.93a23.19,23.19,0,0,0-2.33,45.36,17.6,17.6,0,0,0,5.47.87H72.57A27.15,27.15,0,0,1,61,142.68Z"/></svg>