<svg id="Layer_1" data-name="Layer 1" xmlns="http://www.w3.org/2000/svg" viewBox="0 0 250 250"><defs><style>.cls-1{fill:none;stroke:#f4f4f4;stroke-miterlimit:10;stroke-width:8px;}.cls-2{fill:#fa6244;}.cls-3{fill:#f7f7f7;}</style></defs><path class="cls-1" d="M139.25,143.09V96.49A14.52,14.52,0,0,0,124.72,82h0A14.52,14.52,0,0,0,110.2,96.49v46.88s0,2.59-1,3.57a23.27,23.27,0,0,0-7,17.55,22.82,22.82,0,0,0,45.62-1.07c0-6.7-3.1-12.51-7.49-16.9A5,5,0,0,1,139.25,143.09Z"/><path class="cls-2" d="M133.87,153.66a16.31,16.31,0,0,0-1.73-2.45,5.7,5.7,0,0,1-1.16-3.75v-23.4c0-4-2.69-6.41-6-6.41s-6,2.39-6,6.41V147.7a6.25,6.25,0,0,1-1.1,3.79,13.5,13.5,0,0,0-1.23,1.69,13.14,13.14,0,1,0,17.21.48Z"/><rect class="cls-3" x="149.19" y="85.15" width="21.34" height="8.81" rx="4.4"/><rect class="cls-3" x="149.19" y="100" width="21.34" height="8.81" rx="4.4"/><rect class="cls-3" x="149.19" y="114.85" width="21.34" height="8.81" rx="4.4"/><rect class="cls-3" x="149.19" y="129.7" width="21.34" height="8.81" rx="4.4"/></svg>